<?xml version="1.0" encoding="UTF-8"?>
<!DOCTYPE svg PUBLIC "-//W3C//DTD SVG 1.1//EN" "http://www.w3.org/Graphics/SVG/1.1/DTD/svg11.dtd">
<!-- Creator: CorelDRAW -->
<svg xmlns="http://www.w3.org/2000/svg" xml:space="preserve" width="40.5882mm" height="13.9615mm" style="shape-rendering:geometricPrecision; text-rendering:geometricPrecision; image-rendering:optimizeQuality; fill-rule:evenodd; clip-rule:evenodd"
viewBox="0 0 80512.2 27694.5"
 xmlns:xlink="http://www.w3.org/1999/xlink">
 <defs>
  <style type="text/css">
   <![CDATA[
    .str0 {stroke:#1F1A17;stroke-width:699.628}
    .str1 {stroke:#C47851;stroke-width:699.628}
    .fil1 {fill:#28166F}
    .fil0 {fill:#616F85}
    .fil3 {fill:#4C4840;fill-rule:nonzero}
    .fil6 {fill:#C16955;fill-rule:nonzero}
    .fil8 {fill:#C97A4F;fill-rule:nonzero}
    .fil5 {fill:#CF7A56;fill-rule:nonzero}
    .fil2 {fill:#E77817;fill-rule:nonzero}
    .fil7 {fill:#E7783E;fill-rule:nonzero}
    .fil4 {fill:#EB875A;fill-rule:nonzero}
   ]]>
  </style>
   <clipPath id="id0" style="clip-rule:nonzero">
    <path d="M11888.3 27202m5249.89 -6266.9c0,-1200.89 54.9467,-2264.32 102.951,-3073.84 48.004,-809.125 109.695,-1369.5 109.695,-1562.11 0,-503.447 -130.325,-874.585 -700.025,-874.585 -240.02,0 -4604.61,354.277 -4604.61,1814.03 0,957.501 990.628,521.101 1242.15,1763.45 153.137,756.955 116.638,2017.36 116.638,2672.75 0,411.803 0,1143.17 -27.3742,1856.09 -27.3742,714.109 -82.5192,1411.75 -192.214,1754.92 -198.76,621.473 -919.613,403.471 -919.613,991.223 0,1192.36 2347.04,1110.64 3108.75,1110.64 720.456,0 2765.58,81.7258 2765.58,-1043.19 0,-705.778 -755.17,-421.523 -940.243,-1024.94 -82.3209,-268.386 -61.6911,-824.002 -61.6911,-1125.12 0,-543.119 0,-1087.63 0,-1629.56 0,-542.128 0,-1086.44 0,-1629.76z"/>
   </clipPath>
   <clipPath id="id1" style="clip-rule:nonzero">
    <path d="M18325.4 27202m8076.97 -3865.11c542.128,0 1043,-151.748 1043,-1259.81 0,-630.003 -322.539,-1495.07 -988.049,-2201.84 -665.51,-706.968 -1695.22,-1256.83 -3122.44,-1257.43 -1262.78,-0.396727 -2443.24,472.105 -3307.71,1264.57 -864.667,792.462 -1413.54,1910.44 -1413.54,3202.78 0,1085.25 391.173,2172.87 1152.89,2989.54 761.716,816.663 1914.61,1363.55 3431.09,1363.55 1509.75,0 3877.21,-944.409 3877.21,-2236.75 0,-317.977 -301.909,-839.673 -651.823,-839.673 -350.112,0 -974.56,755.368 -2237.14,755.368 -789.289,0 -1880.29,-705.976 -1880.29,-1545.45 0,-285.445 267.592,-234.862 452.864,-234.862 1214.58,0 2429.36,0 3643.94,0zm-3170.44 -1612.7c-439.177,0 -1008.68,134.887 -1008.68,-469.923 0,-537.169 452.864,-1108.06 1008.68,-1108.06 617.704,0 988.247,469.923 988.247,1074.34 0,604.612 -535.383,503.645 -988.247,503.645z"/>
   </clipPath>
   <clipPath id="id2" style="clip-rule:nonzero">
    <path d="M27678.9 27202m288.222 -4201.14c0,1285.2 514.753,2394.45 1338.16,3182.15 823.407,787.702 1976.3,1255.24 3245.82,1255.24 2353.78,0 3863.53,-1279.25 3863.53,-2270.47 0,-403.471 -302.108,-907.117 -754.773,-907.117 -349.913,0 -706.968,437.392 -1763.65,437.392 -1324.47,0 -2250.83,-1260.01 -2250.83,-2502.95 0,-672.056 404.86,-1427.42 1145.95,-1427.42 1324.47,0 480.437,2082.62 2298.84,2082.62 940.243,0 1647.01,-722.638 1647.01,-1663.48 0,-1175.5 -1331.22,-2569.01 -3849.84,-2569.01 -1413.54,0 -2648.75,492.735 -3520.36,1285.2 -871.411,792.462 -1399.85,1888.62 -1399.85,3097.84z"/>
   </clipPath>
   <clipPath id="id3" style="clip-rule:nonzero">
    <path d="M36970.4 27202m5441.91 -6132.01c0,-604.612 34.5153,-621.473 617.704,-621.473 384.032,0 768.46,0 1159.63,0 658.765,0 775.403,-67.4436 775.403,-1024.94 0,-755.17 0,-805.753 -720.456,-805.753 -398.116,0 -789.289,0 -1180.26,0 -432.433,0 -549.07,-0.198364 -604.017,-134.887 -82.1225,-201.141 -48.004,-721.647 -48.004,-1243.14 0,-772.031 -34.3169,-704.587 -706.769,-704.587 -501.066,0 -490.553,-55.7402 -871.609,184.28 -1279.44,806.546 -2554.33,1621.23 -3829.21,2435.51 -207.29,132.308 -157.699,319.167 -157.699,554.029 0,386.611 -32.5316,552.443 89.0652,672.056 83.9078,82.5192 301.909,67.4436 741.285,67.4436 384.23,0 569.303,-33.1267 651.823,16.8609 81.9242,49.7893 82.3209,167.419 82.3209,469.725 0,577.04 0,1155.27 0,1730.92 0,575.651 0,1152.69 0,1728.34 0,1335.78 535.383,2098.49 1180.46,2524.77 644.682,426.283 1399.85,519.117 1825.34,519.117 1701.76,0 3616.37,-976.941 3616.37,-2086.19 0,-302.306 -240.218,-772.031 -576.445,-772.031 -301.711,0 -603.819,385.42 -1125.32,385.42 -452.864,0 -919.613,-267.394 -919.613,-1393.7 0,-833.524 0,-1667.05 0,-2501.76z"/>
   </clipPath>
   <clipPath id="id4" style="clip-rule:nonzero">
    <path d="M45150.3 27202m1310.79 -4083.12c0,469.725 -54.1533,1427.82 -185.272,1846.57 -184.28,589.14 -960.675,588.941 -960.675,1293.53 0,1162.41 2285.15,1128.69 3060.55,1128.69 1845.97,0 3321.4,-84.3045 3321.4,-1145.55 0,-1006.89 -1273.3,-554.625 -1372.48,-1292.34 -85.8914,-638.929 -137.268,-1344.31 -137.268,-1847.76 0,-302.306 -82.3209,-1427.23 384.429,-1427.23 439.177,0 741.285,956.311 1832.09,956.311 1111.63,0 2065.56,-890.057 2065.56,-2015.18 0,-1108.06 -741.086,-1947.53 -1866.4,-1947.53 -1441.11,0 -1695.02,1326.06 -2099.88,1326.06 -281.478,0 -260.253,-387.404 -281.478,-587.751 -60.8976,-571.684 -82.5192,-738.309 -720.456,-738.309 -150.756,0 -4083.12,368.559 -4083.12,1695.81 0,1025.14 1043,101.165 1043,1746.59 0,336.028 0,672.056 0,1008.08z"/>
   </clipPath>
   <clipPath id="id5" style="clip-rule:nonzero">
    <path d="M54586.3 27202m5126.11 -7795.29c0,-352.889 -20.6298,-738.309 -521.498,-738.309 -171.584,0 -4433.23,503.447 -4433.23,1695.81 0,755.17 852.17,572.477 1008.88,1158.84 83.3127,312.224 116.439,1075.53 109.695,1834.27 -6.74436,761.121 -65.0632,1518.08 -178.329,1810.46 -202.132,521.696 -892.041,554.029 -892.041,1158.64 0,403.471 116.638,1061.25 3005.6,1061.25 754.972,0 2889.17,0 2889.17,-1145.55 0,-890.057 -988.247,-167.419 -988.247,-2150.06 0,-781.552 0,-1560.92 0,-2341.48 0,-780.561 0,-1562.11 0,-2343.86zm-89.2636 -2922.09c0,-839.475 -953.732,-1060.05 -1626.38,-1060.05 -857.724,0 -3074.24,455.443 -3074.24,1563.5 0,823.804 754.773,1143.17 1461.54,1143.17 960.873,0 3239.08,-336.226 3239.08,-1646.62z"/>
   </clipPath>
   <clipPath id="id6" style="clip-rule:nonzero">
    <path d="M60885.9 27202m288.222 -4201.14c0,1285.2 514.753,2394.45 1338.16,3182.15 823.407,787.702 1976.3,1255.24 3245.82,1255.24 2347.04,0 3863.53,-1280.44 3863.53,-2270.47 0,-404.86 -302.108,-908.902 -761.716,-908.307 -349.913,0.396727 -700.025,438.185 -1756.71,438.582 -1331.22,0.595091 -2250.83,-1261.2 -2250.83,-2502.95 0,-672.056 397.917,-1427.42 1139,-1427.42 1324.47,0 487.379,2082.62 2299.03,2082.62 940.045,0 1647.01,-722.638 1647.01,-1663.48 0,-1175.5 -1324.47,-2569.01 -3843.1,-2569.01 -1413.54,0 -2648.75,492.735 -3520.36,1285.2 -871.213,792.462 -1399.85,1888.62 -1399.85,3097.84z"/>
   </clipPath>
   <clipPath id="id7" style="clip-rule:nonzero">
    <path d="M70170.7 27202m4906.52 236.251c1235.01,0 2593.8,-420.927 3637.19,-1186.41 1042.6,-765.088 1797.77,-1874.34 1797.77,-3252.17 0,-1039.43 -439.177,-2135.78 -1221.32,-2970.3 -782.148,-834.714 -1942.18,-1410.36 -3410.66,-1410.36 -1386.16,0 -2745.35,423.705 -3746.89,1222.51 -1002.13,799.405 -1660.7,1975.3 -1660.7,3477.31 0,1327.25 528.837,2356.96 1365.53,3054.6 837.491,698.24 1997.32,1064.82 3239.08,1064.82zm1564.69 -3161.92c0,537.367 -137.466,1075.33 -775.403,1040.81 -583.387,-31.5398 -954.129,-696.256 -1180.46,-1482.77 -226.333,-786.313 -314.406,-1698.59 -349.913,-2227.03 -32.9284,-487.974 267.592,-1008.28 823.407,-1008.28 569.7,0 940.442,731.168 1166.77,1556.16 226.333,824.994 315.596,1743.02 315.596,2121.1z"/>
   </clipPath>
 </defs>
 <g id="Capa_x0020_1">
  <metadata id="CorelCorpID_0Corel-Layer"/>
  <polygon class="fil0 str0" points="9406,23484.3 7973.22,15515.8 4412,15405.1 1135.23,20983.3 607.389,26743.2 2829.85,26546.4 4227.33,22841.4 5682.32,21814 7391.82,26957 10450,27291.9 "/>
  <polygon class="fil0 str0" points="12392.6,10339.1 12236.1,10169.3 12072,10008 11898.8,9846.77 11732.2,9702.56 8819.44,11871.7 8892.64,12178.3 13372.5,12084.1 13303.6,11885.2 13222.5,11675.5 13131.7,11465.8 13030.9,11267.4 12923,11077.6 12805.6,10887.8 12675.6,10698.3 12539,10519.8 "/>
  <polygon class="fil1 str0" points="6167.72,7072.85 5986.81,931.515 6632.29,415.373 10444.4,349.318 10910.6,591.719 10460.7,6995.09 9392.91,7422.96 7808.38,7602.68 6179.82,7489.02 "/>
  <polygon class="fil0 str0" points="2949.47,8609.97 3110.14,8468.74 3260.5,8320.56 3409.47,8163.85 3540.79,8013.09 731.168,5291.74 408.431,5353.63 1200.1,9481.18 1406.2,9421.28 1622.02,9350.26 1836.45,9270.32 2036.8,9181.26 2227.03,9085.25 2415.67,8980.51 2601.93,8864.27 2775.11,8741.49 "/>
  <g>
   <path class="fil2" d="M17137 9846.57l-1001.34 0 0 0 -0.991818 -152.343 -9.12472 -150.36 -12.8936 -147.781 -18.6462 -145.202 -22.2167 -142.227 -29.5562 -139.251 -30.7464 -134.094 -37.8874 -132.308 -41.0613 -128.936 -43.8383 -124.969 -50.5827 -118.82 -50.9794 -116.638 -57.3271 -111.877 -59.7074 -105.331 -61.6911 -102.157 -65.6583 -97.3965 -67.4436 -89.8587 -69.4272 -86.0898 -72.6011 -80.734 -72.006 -72.6011 -75.3782 -68.2371 -76.37 -64.2698 -79.3454 -55.3434 -78.1552 -50.3843 -78.7503 -43.64 -79.3454 -38.2842 -81.7258 -32.73 -81.7258 -27.1758 -81.7258 -19.2413 -81.9242 -15.274 -83.5111 -8.728 -85.098 -2.38036 0 -1001.34 155.319 6.34763 154.128 16.6625 152.145 26.7791 148.376 39.0776 144.409 46.6154 140.441 56.1369 137.664 65.6583 133.895 74.9814 128.936 81.7258 122.192 90.6521 119.613 95.2145 114.257 103.546 111.282 111.877 103.943 115.646 100.372 121.399 94.8178 129.135 89.462 132.308 85.098 137.466 79.1471 144.607 73.1962 147.186 70.4191 151.55 62.0878 158.096 59.7074 160.278 52.5663 163.848 45.822 167.617 42.6482 173.37 33.5234 174.163 29.7545 177.535 22.6134 180.511 16.8609 183.09 9.12472 185.272 4.95909 187.652 0 0zm-35.5071 592.71l-993.405 -105.529 4.56236 -36.6973 12.8936 -147.582 9.12472 -150.558 0.991818 -152.343 1001.34 0 -4.95909 187.652 -9.12472 185.47 -16.8609 182.891 -4.56236 36.6973zm-5641.86 -592.71l1001.34 0 0 0 0.991818 152.343 9.12472 150.558 12.8936 147.582 18.4478 145.202 22.4151 142.227 29.5562 139.45 30.7464 133.895 37.8874 132.507 41.0613 128.936 43.8383 124.771 50.5827 118.82 52.7647 116.638 55.5418 112.075 59.7074 105.133 61.6911 102.356 65.46 97.3965 65.8567 89.8587 71.2125 86.0898 72.6011 80.734 72.006 72.6011 75.3782 68.2371 76.37 64.0714 78.3536 54.7483 -563.353 825.192 -121.2 -90.0571 -119.613 -95.0161 -114.257 -103.546 -111.282 -111.877 -103.943 -115.646 -98.5867 -121.399 -96.8014 -129.135 -89.2636 -132.308 -85.098 -137.664 -79.1471 -144.409 -74.9814 -147.384 -68.6338 -151.55 -62.0878 -158.096 -59.7074 -160.079 -52.5663 -163.848 -45.822 -167.816 -42.6482 -173.171 -33.5234 -174.362 -29.9529 -177.535 -22.4151 -180.511 -16.8609 -182.891 -9.12472 -185.47 -4.95909 -187.652 0 0zm2838.58 -3806l0 1001.34 0 0 -85.098 2.38036 -83.5111 8.728 -81.9242 15.274 -81.7258 19.2413 -81.7258 27.1758 -81.5274 32.73 -79.5438 38.2842 -78.552 43.64 -78.1552 50.3843 -79.3454 55.3434 -76.37 64.2698 -75.3782 68.2371 -72.006 72.6011 -72.6011 80.734 -71.2125 86.0898 -65.8567 89.8587 -65.46 97.3965 -61.6911 102.157 -59.7074 105.331 -57.3271 111.877 -50.9794 116.638 -50.5827 118.82 -43.8383 124.969 -41.0613 128.936 -37.8874 132.308 -30.7464 134.094 -29.5562 139.251 -22.4151 142.227 -18.4478 145.202 -12.8936 147.781 -9.12472 150.36 -0.991818 152.343 -1001.34 0 4.95909 -187.652 9.12472 -185.272 16.8609 -183.09 22.4151 -180.511 29.9529 -177.535 33.5234 -174.163 42.6482 -173.37 45.822 -167.617 52.5663 -163.848 59.7074 -160.278 62.0878 -158.096 70.4191 -151.55 73.1962 -147.186 79.1471 -144.607 85.098 -137.466 89.2636 -132.308 96.8014 -129.135 98.5867 -121.399 103.943 -115.646 111.282 -111.877 114.257 -103.546 119.613 -95.2145 122.192 -90.6521 128.936 -81.7258 133.697 -74.9814 137.863 -65.6583 140.243 -56.1369 144.409 -46.6154 148.376 -39.0776 152.145 -26.7791 154.128 -16.6625 155.319 -6.34763 0 0z"/>
  </g>
  <g>
   <path class="fil3" d="M11433.1 6296.06l1352.44 -337.218 0 0 8.52963 30.1513 10.3149 28.7627 9.32309 28.1676 10.91 26.9774 9.71981 26.3824 13.6871 24.3987 9.32309 21.2249 14.0838 22.0184 12.6953 21.0265 13.6871 19.4396 11.7035 15.6707 13.6871 16.6625 11.7035 15.6707 9.52145 11.5051 13.6871 11.7035 11.9018 10.7116 9.32309 6.546 8.13291 7.73618 5.55418 3.57054 6.546 4.16563 4.76073 2.57873 5.55418 2.97545 -2.57873 0 1.19018 -0.595091 -3.76891 -1.38854 -5.75254 -0.793454 -4.95909 -0.595091 -9.91818 -1.78527 -8.92636 0.595091 -8.13291 0.595091 -10.1165 1.38854 -9.71981 0.991818 338.408 1358 -87.0816 17.2576 -87.8751 12.1002 -85.8914 5.75254 -86.6849 0.595091 -88.0734 -7.33945 -82.7176 -11.3067 -83.1143 -16.6625 -80.734 -22.4151 -75.3782 -25.9856 -78.3536 -30.548 -69.4272 -32.3333 -69.4272 -37.094 -66.4518 -39.8711 -66.2534 -44.8302 -62.4845 -45.0285 -59.7074 -50.186 -55.5418 -50.3843 -52.1696 -52.9631 -54.7483 -56.732 -50.186 -56.5336 -46.6154 -59.1123 -46.2187 -63.6747 -41.458 -63.0796 -40.4662 -64.6665 -36.6973 -67.2452 -38.2842 -70.4191 -31.1431 -70.8158 -32.3333 -71.2125 -27.9693 -73.3945 -26.3824 -74.5847 -22.2167 -76.7667 -20.4314 -77.7585 0 0zm989.041 -2085.99l338.408 1358 0 0 9.32309 -3.76891 9.52145 -3.57054 7.53782 -3.17382 7.33945 -6.34763 8.728 -3.57054 6.546 -3.57054 2.182 -2.57873 2.77709 -3.37218 1.38854 -0.396727 -2.97545 0.198364 -1.19018 4.56236 -2.77709 4.56236 -1.98364 3.37218 -4.95909 9.12472 -6.14927 11.3067 -2.77709 9.52145 -5.35582 14.8773 -4.76073 13.6871 -4.76073 18.0511 -5.75254 19.8364 -1.38854 20.4314 -5.75254 19.8364 -0.396727 23.2085 -1.19018 24.3987 -1.98364 25.7873 -0.396727 26.7791 1.19018 24.5971 3.96727 27.7709 2.97545 28.9611 4.95909 29.5562 4.56236 30.1513 6.546 30.548 -1352.44 337.218 -18.4478 -78.1552 -16.4642 -78.1552 -11.7035 -78.3536 -9.71981 -78.1552 -5.15745 -78.1552 -3.57054 -80.1389 -1.19018 -77.1634 0.793454 -76.1716 5.15745 -76.37 9.91818 -75.9732 8.13291 -76.9651 16.0674 -74.7831 15.274 -72.9978 19.4396 -72.4027 23.0102 -74.3863 25.5889 -70.8158 31.7382 -72.9978 31.5398 -68.4354 35.5071 -67.4436 41.6563 -69.6256 44.0367 -65.2616 48.7974 -61.6911 49.3925 -62.4845 56.9303 -59.1123 61.096 -57.7238 62.8812 -52.9631 70.4191 -49.5909 74.5847 -45.2269 76.37 -42.8465 78.552 -35.3087 83.3127 -30.548 85.098 -25.5889 0 0zm1852.52 1377.44l-1352.44 337.218 0 0 -8.52963 -30.1513 -10.3149 -28.7627 -9.32309 -28.1676 -10.91 -27.1758 -9.71981 -26.3824 -13.092 -21.4233 -10.1165 -24.2004 -13.8854 -21.82 -12.6953 -21.2249 -10.5133 -17.456 -15.0756 -17.456 -13.4887 -16.6625 -11.9018 -15.6707 -12.6953 -13.6871 -10.3149 -9.71981 -11.9018 -10.7116 -9.32309 -6.546 -8.13291 -7.73618 -5.55418 -3.57054 -6.546 -4.16563 -4.76073 -2.57873 -2.38036 -0.991818 -0.595091 -1.78527 -1.19018 0.396727 3.76891 1.38854 5.75254 0.793454 4.95909 0.595091 9.91818 1.78527 8.92636 -0.595091 8.13291 -0.595091 10.1165 -1.38854 9.71981 -0.991818 -338.408 -1358 87.0816 -17.2576 87.8751 -12.1002 85.8914 -5.75254 86.6849 -0.595091 88.0734 7.33945 82.7176 11.3067 83.1143 16.6625 80.734 22.4151 75.3782 26.184 75.1798 28.366 72.6011 34.3169 69.4272 37.094 66.4518 39.8711 66.2534 44.8302 62.4845 45.0285 59.7074 50.186 55.5418 50.3843 55.5418 54.9467 51.1778 54.9467 50.3843 56.5336 46.4171 59.1123 42.8465 61.4927 45.0285 65.0632 40.4662 64.8649 36.4989 67.0469 37.8874 67.8403 31.7382 73.3945 32.3333 71.2125 27.9693 73.5929 26.3824 74.5847 22.2167 76.7667 20.4314 77.7585 0 0zm-989.041 2085.79l-338.408 -1358 0.595091 2.77709 -9.91818 0.991818 -6.74436 2.97545 -10.3149 3.96727 -10.1165 6.74436 -5.95091 2.97545 -4.16563 2.97545 -4.56236 3.37218 -2.97545 3.17382 1.38854 -0.198364 -0.198364 -1.98364 1.58691 -1.98364 2.77709 -4.56236 1.98364 -3.57054 5.15745 -9.12472 3.37218 -10.7116 7.93454 -10.7116 2.77709 -14.0838 4.76073 -13.6871 4.76073 -18.0511 5.75254 -19.8364 1.38854 -20.4314 5.75254 -20.0347 0.396727 -23.0102 1.38854 -24.3987 2.77709 -23.4069 -2.57873 -25.9856 0.793454 -27.9693 -3.76891 -27.7709 -2.97545 -28.7627 -4.95909 -29.5562 -4.56236 -30.1513 -6.546 -30.548 1352.44 -337.218 18.4478 78.1552 16.4642 78.1552 11.7035 78.3536 9.71981 77.9569 4.95909 78.1552 5.55418 77.1634 -1.38854 77.5602 0 78.9487 -5.35582 76.37 -9.91818 75.7749 -8.13291 77.1634 -16.0674 74.7831 -15.274 72.9978 -19.4396 72.4027 -23.0102 74.3863 -28.1676 71.2125 -26.5807 71.8076 -33.9202 69.0305 -35.7054 67.4436 -41.6563 69.824 -44.0367 65.2616 -48.004 64.2698 -52.9631 60.3025 -54.1533 58.5173 -60.8976 57.9222 -65.6583 53.3598 -67.642 48.9958 -72.2043 44.6318 -78.7503 43.64 -81.3291 35.7054 -80.5356 29.9529 -85.6931 22.8118 0.595091 2.77709z"/>
  </g>
  <g style="clip-path:url(#id0)">
   <polygon class="fil4" points="-38496,-39189.3 131199,-39189.3 131199,81783.7 -38496,81783.7 "/>
   <g id="Capa_x0020_1_0">
    <metadata id="CorelCorpID_1Corel-Layer"/>
    <polygon id="1" class="fil5 str1" points="9406,23484.3 7973.22,15515.8 4412,15405.1 1135.23,20983.3 607.389,26743.2 2829.85,26546.4 4227.33,22841.4 5682.32,21814 7391.82,26957 10450,27291.9 "/>
    <polygon class="fil5 str1" points="12392.6,10339.1 12236.1,10169.3 12072,10008 11898.8,9846.77 11732.2,9702.56 8819.44,11871.7 8892.64,12178.3 13372.5,12084.1 13303.6,11885.2 13222.5,11675.5 13131.7,11465.8 13030.9,11267.4 12923,11077.6 12805.6,10887.8 12675.6,10698.3 12539,10519.8 "/>
    <polygon class="fil6 str1" points="6167.72,7072.85 5986.81,931.515 6632.29,415.373 10444.4,349.318 10910.6,591.719 10460.7,6995.09 9392.91,7422.96 7808.38,7602.68 6179.82,7489.02 "/>
    <polygon class="fil5 str1" points="2949.47,8609.97 3110.14,8468.74 3260.5,8320.56 3409.47,8163.85 3540.79,8013.09 731.168,5291.74 408.431,5353.63 1200.1,9481.18 1406.2,9421.28 1622.02,9350.26 1836.45,9270.32 2036.8,9181.26 2227.03,9085.25 2415.67,8980.51 2601.93,8864.27 2775.11,8741.49 "/>
    <g>
     <path class="fil7" d="M17137 9846.57l-1001.34 0 0 0 -0.991818 -152.343 -9.12472 -150.36 -12.8936 -147.781 -18.6462 -145.202 -22.2167 -142.227 -29.5562 -139.251 -30.7464 -134.094 -37.8874 -132.308 -41.0613 -128.936 -43.8383 -124.969 -50.5827 -118.82 -50.9794 -116.638 -57.3271 -111.877 -59.7074 -105.331 -61.6911 -102.157 -65.6583 -97.3965 -67.4436 -89.8587 -69.4272 -86.0898 -72.6011 -80.734 -72.006 -72.6011 -75.3782 -68.2371 -76.37 -64.2698 -79.3454 -55.3434 -78.1552 -50.3843 -78.7503 -43.64 -79.3454 -38.2842 -81.7258 -32.73 -81.7258 -27.1758 -81.7258 -19.2413 -81.9242 -15.274 -83.5111 -8.728 -85.098 -2.38036 0 -1001.34 155.319 6.34763 154.128 16.6625 152.145 26.7791 148.376 39.0776 144.409 46.6154 140.441 56.1369 137.664 65.6583 133.895 74.9814 128.936 81.7258 122.192 90.6521 119.613 95.2145 114.257 103.546 111.282 111.877 103.943 115.646 100.372 121.399 94.8178 129.135 89.462 132.308 85.098 137.466 79.1471 144.607 73.1962 147.186 70.4191 151.55 62.0878 158.096 59.7074 160.278 52.5663 163.848 45.822 167.617 42.6482 173.37 33.5234 174.163 29.7545 177.535 22.6134 180.511 16.8609 183.09 9.12472 185.272 4.95909 187.652 0 0zm-35.5071 592.71l-993.405 -105.529 4.56236 -36.6973 12.8936 -147.582 9.12472 -150.558 0.991818 -152.343 1001.34 0 -4.95909 187.652 -9.12472 185.47 -16.8609 182.891 -4.56236 36.6973zm-5641.86 -592.71l1001.34 0 0 0 0.991818 152.343 9.12472 150.558 12.8936 147.582 18.4478 145.202 22.4151 142.227 29.5562 139.45 30.7464 133.895 37.8874 132.507 41.0613 128.936 43.8383 124.771 50.5827 118.82 52.7647 116.638 55.5418 112.075 59.7074 105.133 61.6911 102.356 65.46 97.3965 65.8567 89.8587 71.2125 86.0898 72.6011 80.734 72.006 72.6011 75.3782 68.2371 76.37 64.0714 78.3536 54.7483 -563.353 825.192 -121.2 -90.0571 -119.613 -95.0161 -114.257 -103.546 -111.282 -111.877 -103.943 -115.646 -98.5867 -121.399 -96.8014 -129.135 -89.2636 -132.308 -85.098 -137.664 -79.1471 -144.409 -74.9814 -147.384 -68.6338 -151.55 -62.0878 -158.096 -59.7074 -160.079 -52.5663 -163.848 -45.822 -167.816 -42.6482 -173.171 -33.5234 -174.362 -29.9529 -177.535 -22.4151 -180.511 -16.8609 -182.891 -9.12472 -185.47 -4.95909 -187.652 0 0zm2838.58 -3806l0 1001.34 0 0 -85.098 2.38036 -83.5111 8.728 -81.9242 15.274 -81.7258 19.2413 -81.7258 27.1758 -81.5274 32.73 -79.5438 38.2842 -78.552 43.64 -78.1552 50.3843 -79.3454 55.3434 -76.37 64.2698 -75.3782 68.2371 -72.006 72.6011 -72.6011 80.734 -71.2125 86.0898 -65.8567 89.8587 -65.46 97.3965 -61.6911 102.157 -59.7074 105.331 -57.3271 111.877 -50.9794 116.638 -50.5827 118.82 -43.8383 124.969 -41.0613 128.936 -37.8874 132.308 -30.7464 134.094 -29.5562 139.251 -22.4151 142.227 -18.4478 145.202 -12.8936 147.781 -9.12472 150.36 -0.991818 152.343 -1001.34 0 4.95909 -187.652 9.12472 -185.272 16.8609 -183.09 22.4151 -180.511 29.9529 -177.535 33.5234 -174.163 42.6482 -173.37 45.822 -167.617 52.5663 -163.848 59.7074 -160.278 62.0878 -158.096 70.4191 -151.55 73.1962 -147.186 79.1471 -144.607 85.098 -137.466 89.2636 -132.308 96.8014 -129.135 98.5867 -121.399 103.943 -115.646 111.282 -111.877 114.257 -103.546 119.613 -95.2145 122.192 -90.6521 128.936 -81.7258 133.697 -74.9814 137.863 -65.6583 140.243 -56.1369 144.409 -46.6154 148.376 -39.0776 152.145 -26.7791 154.128 -16.6625 155.319 -6.34763 0 0z"/>
    </g>
    <g>
     <path class="fil8" d="M11433.1 6296.06l1352.44 -337.218 0 0 8.52963 30.1513 10.3149 28.7627 9.32309 28.1676 10.91 26.9774 9.71981 26.3824 13.6871 24.3987 9.32309 21.2249 14.0838 22.0184 12.6953 21.0265 13.6871 19.4396 11.7035 15.6707 13.6871 16.6625 11.7035 15.6707 9.52145 11.5051 13.6871 11.7035 11.9018 10.7116 9.32309 6.546 8.13291 7.73618 5.55418 3.57054 6.546 4.16563 4.76073 2.57873 5.55418 2.97545 -2.57873 0 1.19018 -0.595091 -3.76891 -1.38854 -5.75254 -0.793454 -4.95909 -0.595091 -9.91818 -1.78527 -8.92636 0.595091 -8.13291 0.595091 -10.1165 1.38854 -9.71981 0.991818 338.408 1358 -87.0816 17.2576 -87.8751 12.1002 -85.8914 5.75254 -86.6849 0.595091 -88.0734 -7.33945 -82.7176 -11.3067 -83.1143 -16.6625 -80.734 -22.4151 -75.3782 -25.9856 -78.3536 -30.548 -69.4272 -32.3333 -69.4272 -37.094 -66.4518 -39.8711 -66.2534 -44.8302 -62.4845 -45.0285 -59.7074 -50.186 -55.5418 -50.3843 -52.1696 -52.9631 -54.7483 -56.732 -50.186 -56.5336 -46.6154 -59.1123 -46.2187 -63.6747 -41.458 -63.0796 -40.4662 -64.6665 -36.6973 -67.2452 -38.2842 -70.4191 -31.1431 -70.8158 -32.3333 -71.2125 -27.9693 -73.3945 -26.3824 -74.5847 -22.2167 -76.7667 -20.4314 -77.7585 0 0zm989.041 -2085.99l338.408 1358 0 0 9.32309 -3.76891 9.52145 -3.57054 7.53782 -3.17382 7.33945 -6.34763 8.728 -3.57054 6.546 -3.57054 2.182 -2.57873 2.77709 -3.37218 1.38854 -0.396727 -2.97545 0.198364 -1.19018 4.56236 -2.77709 4.56236 -1.98364 3.37218 -4.95909 9.12472 -6.14927 11.3067 -2.77709 9.52145 -5.35582 14.8773 -4.76073 13.6871 -4.76073 18.0511 -5.75254 19.8364 -1.38854 20.4314 -5.75254 19.8364 -0.396727 23.2085 -1.19018 24.3987 -1.98364 25.7873 -0.396727 26.7791 1.19018 24.5971 3.96727 27.7709 2.97545 28.9611 4.95909 29.5562 4.56236 30.1513 6.546 30.548 -1352.44 337.218 -18.4478 -78.1552 -16.4642 -78.1552 -11.7035 -78.3536 -9.71981 -78.1552 -5.15745 -78.1552 -3.57054 -80.1389 -1.19018 -77.1634 0.793454 -76.1716 5.15745 -76.37 9.91818 -75.9732 8.13291 -76.9651 16.0674 -74.7831 15.274 -72.9978 19.4396 -72.4027 23.0102 -74.3863 25.5889 -70.8158 31.7382 -72.9978 31.5398 -68.4354 35.5071 -67.4436 41.6563 -69.6256 44.0367 -65.2616 48.7974 -61.6911 49.3925 -62.4845 56.9303 -59.1123 61.096 -57.7238 62.8812 -52.9631 70.4191 -49.5909 74.5847 -45.2269 76.37 -42.8465 78.552 -35.3087 83.3127 -30.548 85.098 -25.5889 0 0zm1852.52 1377.44l-1352.44 337.218 0 0 -8.52963 -30.1513 -10.3149 -28.7627 -9.32309 -28.1676 -10.91 -27.1758 -9.71981 -26.3824 -13.092 -21.4233 -10.1165 -24.2004 -13.8854 -21.82 -12.6953 -21.2249 -10.5133 -17.456 -15.0756 -17.456 -13.4887 -16.6625 -11.9018 -15.6707 -12.6953 -13.6871 -10.3149 -9.71981 -11.9018 -10.7116 -9.32309 -6.546 -8.13291 -7.73618 -5.55418 -3.57054 -6.546 -4.16563 -4.76073 -2.57873 -2.38036 -0.991818 -0.595091 -1.78527 -1.19018 0.396727 3.76891 1.38854 5.75254 0.793454 4.95909 0.595091 9.91818 1.78527 8.92636 -0.595091 8.13291 -0.595091 10.1165 -1.38854 9.71981 -0.991818 -338.408 -1358 87.0816 -17.2576 87.8751 -12.1002 85.8914 -5.75254 86.6849 -0.595091 88.0734 7.33945 82.7176 11.3067 83.1143 16.6625 80.734 22.4151 75.3782 26.184 75.1798 28.366 72.6011 34.3169 69.4272 37.094 66.4518 39.8711 66.2534 44.8302 62.4845 45.0285 59.7074 50.186 55.5418 50.3843 55.5418 54.9467 51.1778 54.9467 50.3843 56.5336 46.4171 59.1123 42.8465 61.4927 45.0285 65.0632 40.4662 64.8649 36.4989 67.0469 37.8874 67.8403 31.7382 73.3945 32.3333 71.2125 27.9693 73.5929 26.3824 74.5847 22.2167 76.7667 20.4314 77.7585 0 0zm-989.041 2085.79l-338.408 -1358 0.595091 2.77709 -9.91818 0.991818 -6.74436 2.97545 -10.3149 3.96727 -10.1165 6.74436 -5.95091 2.97545 -4.16563 2.97545 -4.56236 3.37218 -2.97545 3.17382 1.38854 -0.198364 -0.198364 -1.98364 1.58691 -1.98364 2.77709 -4.56236 1.98364 -3.57054 5.15745 -9.12472 3.37218 -10.7116 7.93454 -10.7116 2.77709 -14.0838 4.76073 -13.6871 4.76073 -18.0511 5.75254 -19.8364 1.38854 -20.4314 5.75254 -20.0347 0.396727 -23.0102 1.38854 -24.3987 2.77709 -23.4069 -2.57873 -25.9856 0.793454 -27.9693 -3.76891 -27.7709 -2.97545 -28.7627 -4.95909 -29.5562 -4.56236 -30.1513 -6.546 -30.548 1352.44 -337.218 18.4478 78.1552 16.4642 78.1552 11.7035 78.3536 9.71981 77.9569 4.95909 78.1552 5.55418 77.1634 -1.38854 77.5602 0 78.9487 -5.35582 76.37 -9.91818 75.7749 -8.13291 77.1634 -16.0674 74.7831 -15.274 72.9978 -19.4396 72.4027 -23.0102 74.3863 -28.1676 71.2125 -26.5807 71.8076 -33.9202 69.0305 -35.7054 67.4436 -41.6563 69.824 -44.0367 65.2616 -48.004 64.2698 -52.9631 60.3025 -54.1533 58.5173 -60.8976 57.9222 -65.6583 53.3598 -67.642 48.9958 -72.2043 44.6318 -78.7503 43.64 -81.3291 35.7054 -80.5356 29.9529 -85.6931 22.8118 0.595091 2.77709z"/>
    </g>
   </g>
  </g>
  <g style="clip-path:url(#id1)">
   <polygon class="fil4" points="-38496,-39189.3 131199,-39189.3 131199,81783.7 -38496,81783.7 "/>
   <g id="Capa_x0020_1_1">
    <metadata id="CorelCorpID_2Corel-Layer"/>
    <polygon id="1" class="fil5 str1" points="9406,23484.3 7973.22,15515.8 4412,15405.1 1135.23,20983.3 607.389,26743.2 2829.85,26546.4 4227.33,22841.4 5682.32,21814 7391.82,26957 10450,27291.9 "/>
    <polygon class="fil5 str1" points="12392.6,10339.1 12236.1,10169.3 12072,10008 11898.8,9846.77 11732.2,9702.56 8819.44,11871.7 8892.64,12178.3 13372.5,12084.1 13303.6,11885.2 13222.5,11675.5 13131.7,11465.8 13030.9,11267.4 12923,11077.6 12805.6,10887.8 12675.6,10698.3 12539,10519.8 "/>
    <polygon class="fil6 str1" points="6167.72,7072.85 5986.81,931.515 6632.29,415.373 10444.4,349.318 10910.6,591.719 10460.7,6995.09 9392.91,7422.96 7808.38,7602.68 6179.82,7489.02 "/>
    <polygon class="fil5 str1" points="2949.47,8609.97 3110.14,8468.74 3260.5,8320.56 3409.47,8163.85 3540.79,8013.09 731.168,5291.74 408.431,5353.63 1200.1,9481.18 1406.2,9421.28 1622.02,9350.26 1836.45,9270.32 2036.8,9181.26 2227.03,9085.25 2415.67,8980.51 2601.93,8864.27 2775.11,8741.49 "/>
    <g>
     <path class="fil7" d="M17137 9846.57l-1001.34 0 0 0 -0.991818 -152.343 -9.12472 -150.36 -12.8936 -147.781 -18.6462 -145.202 -22.2167 -142.227 -29.5562 -139.251 -30.7464 -134.094 -37.8874 -132.308 -41.0613 -128.936 -43.8383 -124.969 -50.5827 -118.82 -50.9794 -116.638 -57.3271 -111.877 -59.7074 -105.331 -61.6911 -102.157 -65.6583 -97.3965 -67.4436 -89.8587 -69.4272 -86.0898 -72.6011 -80.734 -72.006 -72.6011 -75.3782 -68.2371 -76.37 -64.2698 -79.3454 -55.3434 -78.1552 -50.3843 -78.7503 -43.64 -79.3454 -38.2842 -81.7258 -32.73 -81.7258 -27.1758 -81.7258 -19.2413 -81.9242 -15.274 -83.5111 -8.728 -85.098 -2.38036 0 -1001.34 155.319 6.34763 154.128 16.6625 152.145 26.7791 148.376 39.0776 144.409 46.6154 140.441 56.1369 137.664 65.6583 133.895 74.9814 128.936 81.7258 122.192 90.6521 119.613 95.2145 114.257 103.546 111.282 111.877 103.943 115.646 100.372 121.399 94.8178 129.135 89.462 132.308 85.098 137.466 79.1471 144.607 73.1962 147.186 70.4191 151.55 62.0878 158.096 59.7074 160.278 52.5663 163.848 45.822 167.617 42.6482 173.37 33.5234 174.163 29.7545 177.535 22.6134 180.511 16.8609 183.09 9.12472 185.272 4.95909 187.652 0 0zm-35.5071 592.71l-993.405 -105.529 4.56236 -36.6973 12.8936 -147.582 9.12472 -150.558 0.991818 -152.343 1001.34 0 -4.95909 187.652 -9.12472 185.47 -16.8609 182.891 -4.56236 36.6973zm-5641.86 -592.71l1001.34 0 0 0 0.991818 152.343 9.12472 150.558 12.8936 147.582 18.4478 145.202 22.4151 142.227 29.5562 139.45 30.7464 133.895 37.8874 132.507 41.0613 128.936 43.8383 124.771 50.5827 118.82 52.7647 116.638 55.5418 112.075 59.7074 105.133 61.6911 102.356 65.46 97.3965 65.8567 89.8587 71.2125 86.0898 72.6011 80.734 72.006 72.6011 75.3782 68.2371 76.37 64.0714 78.3536 54.7483 -563.353 825.192 -121.2 -90.0571 -119.613 -95.0161 -114.257 -103.546 -111.282 -111.877 -103.943 -115.646 -98.5867 -121.399 -96.8014 -129.135 -89.2636 -132.308 -85.098 -137.664 -79.1471 -144.409 -74.9814 -147.384 -68.6338 -151.55 -62.0878 -158.096 -59.7074 -160.079 -52.5663 -163.848 -45.822 -167.816 -42.6482 -173.171 -33.5234 -174.362 -29.9529 -177.535 -22.4151 -180.511 -16.8609 -182.891 -9.12472 -185.47 -4.95909 -187.652 0 0zm2838.58 -3806l0 1001.34 0 0 -85.098 2.38036 -83.5111 8.728 -81.9242 15.274 -81.7258 19.2413 -81.7258 27.1758 -81.5274 32.73 -79.5438 38.2842 -78.552 43.64 -78.1552 50.3843 -79.3454 55.3434 -76.37 64.2698 -75.3782 68.2371 -72.006 72.6011 -72.6011 80.734 -71.2125 86.0898 -65.8567 89.8587 -65.46 97.3965 -61.6911 102.157 -59.7074 105.331 -57.3271 111.877 -50.9794 116.638 -50.5827 118.82 -43.8383 124.969 -41.0613 128.936 -37.8874 132.308 -30.7464 134.094 -29.5562 139.251 -22.4151 142.227 -18.4478 145.202 -12.8936 147.781 -9.12472 150.36 -0.991818 152.343 -1001.34 0 4.95909 -187.652 9.12472 -185.272 16.8609 -183.09 22.4151 -180.511 29.9529 -177.535 33.5234 -174.163 42.6482 -173.37 45.822 -167.617 52.5663 -163.848 59.7074 -160.278 62.0878 -158.096 70.4191 -151.55 73.1962 -147.186 79.1471 -144.607 85.098 -137.466 89.2636 -132.308 96.8014 -129.135 98.5867 -121.399 103.943 -115.646 111.282 -111.877 114.257 -103.546 119.613 -95.2145 122.192 -90.6521 128.936 -81.7258 133.697 -74.9814 137.863 -65.6583 140.243 -56.1369 144.409 -46.6154 148.376 -39.0776 152.145 -26.7791 154.128 -16.6625 155.319 -6.34763 0 0z"/>
    </g>
    <g>
     <path class="fil8" d="M11433.1 6296.06l1352.44 -337.218 0 0 8.52963 30.1513 10.3149 28.7627 9.32309 28.1676 10.91 26.9774 9.71981 26.3824 13.6871 24.3987 9.32309 21.2249 14.0838 22.0184 12.6953 21.0265 13.6871 19.4396 11.7035 15.6707 13.6871 16.6625 11.7035 15.6707 9.52145 11.5051 13.6871 11.7035 11.9018 10.7116 9.32309 6.546 8.13291 7.73618 5.55418 3.57054 6.546 4.16563 4.76073 2.57873 5.55418 2.97545 -2.57873 0 1.19018 -0.595091 -3.76891 -1.38854 -5.75254 -0.793454 -4.95909 -0.595091 -9.91818 -1.78527 -8.92636 0.595091 -8.13291 0.595091 -10.1165 1.38854 -9.71981 0.991818 338.408 1358 -87.0816 17.2576 -87.8751 12.1002 -85.8914 5.75254 -86.6849 0.595091 -88.0734 -7.33945 -82.7176 -11.3067 -83.1143 -16.6625 -80.734 -22.4151 -75.3782 -25.9856 -78.3536 -30.548 -69.4272 -32.3333 -69.4272 -37.094 -66.4518 -39.8711 -66.2534 -44.8302 -62.4845 -45.0285 -59.7074 -50.186 -55.5418 -50.3843 -52.1696 -52.9631 -54.7483 -56.732 -50.186 -56.5336 -46.6154 -59.1123 -46.2187 -63.6747 -41.458 -63.0796 -40.4662 -64.6665 -36.6973 -67.2452 -38.2842 -70.4191 -31.1431 -70.8158 -32.3333 -71.2125 -27.9693 -73.3945 -26.3824 -74.5847 -22.2167 -76.7667 -20.4314 -77.7585 0 0zm989.041 -2085.99l338.408 1358 0 0 9.32309 -3.76891 9.52145 -3.57054 7.53782 -3.17382 7.33945 -6.34763 8.728 -3.57054 6.546 -3.57054 2.182 -2.57873 2.77709 -3.37218 1.38854 -0.396727 -2.97545 0.198364 -1.19018 4.56236 -2.77709 4.56236 -1.98364 3.37218 -4.95909 9.12472 -6.14927 11.3067 -2.77709 9.52145 -5.35582 14.8773 -4.76073 13.6871 -4.76073 18.0511 -5.75254 19.8364 -1.38854 20.4314 -5.75254 19.8364 -0.396727 23.2085 -1.19018 24.3987 -1.98364 25.7873 -0.396727 26.7791 1.19018 24.5971 3.96727 27.7709 2.97545 28.9611 4.95909 29.5562 4.56236 30.1513 6.546 30.548 -1352.44 337.218 -18.4478 -78.1552 -16.4642 -78.1552 -11.7035 -78.3536 -9.71981 -78.1552 -5.15745 -78.1552 -3.57054 -80.1389 -1.19018 -77.1634 0.793454 -76.1716 5.15745 -76.37 9.91818 -75.9732 8.13291 -76.9651 16.0674 -74.7831 15.274 -72.9978 19.4396 -72.4027 23.0102 -74.3863 25.5889 -70.8158 31.7382 -72.9978 31.5398 -68.4354 35.5071 -67.4436 41.6563 -69.6256 44.0367 -65.2616 48.7974 -61.6911 49.3925 -62.4845 56.9303 -59.1123 61.096 -57.7238 62.8812 -52.9631 70.4191 -49.5909 74.5847 -45.2269 76.37 -42.8465 78.552 -35.3087 83.3127 -30.548 85.098 -25.5889 0 0zm1852.52 1377.44l-1352.44 337.218 0 0 -8.52963 -30.1513 -10.3149 -28.7627 -9.32309 -28.1676 -10.91 -27.1758 -9.71981 -26.3824 -13.092 -21.4233 -10.1165 -24.2004 -13.8854 -21.82 -12.6953 -21.2249 -10.5133 -17.456 -15.0756 -17.456 -13.4887 -16.6625 -11.9018 -15.6707 -12.6953 -13.6871 -10.3149 -9.71981 -11.9018 -10.7116 -9.32309 -6.546 -8.13291 -7.73618 -5.55418 -3.57054 -6.546 -4.16563 -4.76073 -2.57873 -2.38036 -0.991818 -0.595091 -1.78527 -1.19018 0.396727 3.76891 1.38854 5.75254 0.793454 4.95909 0.595091 9.91818 1.78527 8.92636 -0.595091 8.13291 -0.595091 10.1165 -1.38854 9.71981 -0.991818 -338.408 -1358 87.0816 -17.2576 87.8751 -12.1002 85.8914 -5.75254 86.6849 -0.595091 88.0734 7.33945 82.7176 11.3067 83.1143 16.6625 80.734 22.4151 75.3782 26.184 75.1798 28.366 72.6011 34.3169 69.4272 37.094 66.4518 39.8711 66.2534 44.8302 62.4845 45.0285 59.7074 50.186 55.5418 50.3843 55.5418 54.9467 51.1778 54.9467 50.3843 56.5336 46.4171 59.1123 42.8465 61.4927 45.0285 65.0632 40.4662 64.8649 36.4989 67.0469 37.8874 67.8403 31.7382 73.3945 32.3333 71.2125 27.9693 73.5929 26.3824 74.5847 22.2167 76.7667 20.4314 77.7585 0 0zm-989.041 2085.79l-338.408 -1358 0.595091 2.77709 -9.91818 0.991818 -6.74436 2.97545 -10.3149 3.96727 -10.1165 6.74436 -5.95091 2.97545 -4.16563 2.97545 -4.56236 3.37218 -2.97545 3.17382 1.38854 -0.198364 -0.198364 -1.98364 1.58691 -1.98364 2.77709 -4.56236 1.98364 -3.57054 5.15745 -9.12472 3.37218 -10.7116 7.93454 -10.7116 2.77709 -14.0838 4.76073 -13.6871 4.76073 -18.0511 5.75254 -19.8364 1.38854 -20.4314 5.75254 -20.0347 0.396727 -23.0102 1.38854 -24.3987 2.77709 -23.4069 -2.57873 -25.9856 0.793454 -27.9693 -3.76891 -27.7709 -2.97545 -28.7627 -4.95909 -29.5562 -4.56236 -30.1513 -6.546 -30.548 1352.44 -337.218 18.4478 78.1552 16.4642 78.1552 11.7035 78.3536 9.71981 77.9569 4.95909 78.1552 5.55418 77.1634 -1.38854 77.5602 0 78.9487 -5.35582 76.37 -9.91818 75.7749 -8.13291 77.1634 -16.0674 74.7831 -15.274 72.9978 -19.4396 72.4027 -23.0102 74.3863 -28.1676 71.2125 -26.5807 71.8076 -33.9202 69.0305 -35.7054 67.4436 -41.6563 69.824 -44.0367 65.2616 -48.004 64.2698 -52.9631 60.3025 -54.1533 58.5173 -60.8976 57.9222 -65.6583 53.3598 -67.642 48.9958 -72.2043 44.6318 -78.7503 43.64 -81.3291 35.7054 -80.5356 29.9529 -85.6931 22.8118 0.595091 2.77709z"/>
    </g>
   </g>
  </g>
  <g style="clip-path:url(#id2)">
   <polygon class="fil4" points="-38496,-39189.3 131199,-39189.3 131199,81783.7 -38496,81783.7 "/>
   <g id="Capa_x0020_1_2">
    <metadata id="CorelCorpID_3Corel-Layer"/>
    <polygon id="1" class="fil5 str1" points="9406,23484.3 7973.22,15515.8 4412,15405.1 1135.23,20983.3 607.389,26743.2 2829.85,26546.4 4227.33,22841.4 5682.32,21814 7391.82,26957 10450,27291.9 "/>
    <polygon class="fil5 str1" points="12392.6,10339.1 12236.1,10169.3 12072,10008 11898.8,9846.77 11732.2,9702.56 8819.44,11871.7 8892.64,12178.3 13372.5,12084.1 13303.6,11885.2 13222.5,11675.5 13131.7,11465.8 13030.9,11267.4 12923,11077.6 12805.6,10887.8 12675.6,10698.3 12539,10519.8 "/>
    <polygon class="fil6 str1" points="6167.72,7072.85 5986.81,931.515 6632.29,415.373 10444.4,349.318 10910.6,591.719 10460.7,6995.09 9392.91,7422.96 7808.38,7602.68 6179.82,7489.02 "/>
    <polygon class="fil5 str1" points="2949.47,8609.97 3110.14,8468.74 3260.5,8320.56 3409.47,8163.85 3540.79,8013.09 731.168,5291.74 408.431,5353.63 1200.1,9481.18 1406.2,9421.28 1622.02,9350.26 1836.45,9270.32 2036.8,9181.26 2227.03,9085.25 2415.67,8980.51 2601.93,8864.27 2775.11,8741.49 "/>
    <g>
     <path class="fil7" d="M17137 9846.57l-1001.34 0 0 0 -0.991818 -152.343 -9.12472 -150.36 -12.8936 -147.781 -18.6462 -145.202 -22.2167 -142.227 -29.5562 -139.251 -30.7464 -134.094 -37.8874 -132.308 -41.0613 -128.936 -43.8383 -124.969 -50.5827 -118.82 -50.9794 -116.638 -57.3271 -111.877 -59.7074 -105.331 -61.6911 -102.157 -65.6583 -97.3965 -67.4436 -89.8587 -69.4272 -86.0898 -72.6011 -80.734 -72.006 -72.6011 -75.3782 -68.2371 -76.37 -64.2698 -79.3454 -55.3434 -78.1552 -50.3843 -78.7503 -43.64 -79.3454 -38.2842 -81.7258 -32.73 -81.7258 -27.1758 -81.7258 -19.2413 -81.9242 -15.274 -83.5111 -8.728 -85.098 -2.38036 0 -1001.34 155.319 6.34763 154.128 16.6625 152.145 26.7791 148.376 39.0776 144.409 46.6154 140.441 56.1369 137.664 65.6583 133.895 74.9814 128.936 81.7258 122.192 90.6521 119.613 95.2145 114.257 103.546 111.282 111.877 103.943 115.646 100.372 121.399 94.8178 129.135 89.462 132.308 85.098 137.466 79.1471 144.607 73.1962 147.186 70.4191 151.55 62.0878 158.096 59.7074 160.278 52.5663 163.848 45.822 167.617 42.6482 173.37 33.5234 174.163 29.7545 177.535 22.6134 180.511 16.8609 183.09 9.12472 185.272 4.95909 187.652 0 0zm-35.5071 592.71l-993.405 -105.529 4.56236 -36.6973 12.8936 -147.582 9.12472 -150.558 0.991818 -152.343 1001.34 0 -4.95909 187.652 -9.12472 185.47 -16.8609 182.891 -4.56236 36.6973zm-5641.86 -592.71l1001.34 0 0 0 0.991818 152.343 9.12472 150.558 12.8936 147.582 18.4478 145.202 22.4151 142.227 29.5562 139.45 30.7464 133.895 37.8874 132.507 41.0613 128.936 43.8383 124.771 50.5827 118.82 52.7647 116.638 55.5418 112.075 59.7074 105.133 61.6911 102.356 65.46 97.3965 65.8567 89.8587 71.2125 86.0898 72.6011 80.734 72.006 72.6011 75.3782 68.2371 76.37 64.0714 78.3536 54.7483 -563.353 825.192 -121.2 -90.0571 -119.613 -95.0161 -114.257 -103.546 -111.282 -111.877 -103.943 -115.646 -98.5867 -121.399 -96.8014 -129.135 -89.2636 -132.308 -85.098 -137.664 -79.1471 -144.409 -74.9814 -147.384 -68.6338 -151.55 -62.0878 -158.096 -59.7074 -160.079 -52.5663 -163.848 -45.822 -167.816 -42.6482 -173.171 -33.5234 -174.362 -29.9529 -177.535 -22.4151 -180.511 -16.8609 -182.891 -9.12472 -185.47 -4.95909 -187.652 0 0zm2838.58 -3806l0 1001.34 0 0 -85.098 2.38036 -83.5111 8.728 -81.9242 15.274 -81.7258 19.2413 -81.7258 27.1758 -81.5274 32.73 -79.5438 38.2842 -78.552 43.64 -78.1552 50.3843 -79.3454 55.3434 -76.37 64.2698 -75.3782 68.2371 -72.006 72.6011 -72.6011 80.734 -71.2125 86.0898 -65.8567 89.8587 -65.46 97.3965 -61.6911 102.157 -59.7074 105.331 -57.3271 111.877 -50.9794 116.638 -50.5827 118.82 -43.8383 124.969 -41.0613 128.936 -37.8874 132.308 -30.7464 134.094 -29.5562 139.251 -22.4151 142.227 -18.4478 145.202 -12.8936 147.781 -9.12472 150.36 -0.991818 152.343 -1001.34 0 4.95909 -187.652 9.12472 -185.272 16.8609 -183.09 22.4151 -180.511 29.9529 -177.535 33.5234 -174.163 42.6482 -173.37 45.822 -167.617 52.5663 -163.848 59.7074 -160.278 62.0878 -158.096 70.4191 -151.55 73.1962 -147.186 79.1471 -144.607 85.098 -137.466 89.2636 -132.308 96.8014 -129.135 98.5867 -121.399 103.943 -115.646 111.282 -111.877 114.257 -103.546 119.613 -95.2145 122.192 -90.6521 128.936 -81.7258 133.697 -74.9814 137.863 -65.6583 140.243 -56.1369 144.409 -46.6154 148.376 -39.0776 152.145 -26.7791 154.128 -16.6625 155.319 -6.34763 0 0z"/>
    </g>
    <g>
     <path class="fil8" d="M11433.1 6296.06l1352.44 -337.218 0 0 8.52963 30.1513 10.3149 28.7627 9.32309 28.1676 10.91 26.9774 9.71981 26.3824 13.6871 24.3987 9.32309 21.2249 14.0838 22.0184 12.6953 21.0265 13.6871 19.4396 11.7035 15.6707 13.6871 16.6625 11.7035 15.6707 9.52145 11.5051 13.6871 11.7035 11.9018 10.7116 9.32309 6.546 8.13291 7.73618 5.55418 3.57054 6.546 4.16563 4.76073 2.57873 5.55418 2.97545 -2.57873 0 1.19018 -0.595091 -3.76891 -1.38854 -5.75254 -0.793454 -4.95909 -0.595091 -9.91818 -1.78527 -8.92636 0.595091 -8.13291 0.595091 -10.1165 1.38854 -9.71981 0.991818 338.408 1358 -87.0816 17.2576 -87.8751 12.1002 -85.8914 5.75254 -86.6849 0.595091 -88.0734 -7.33945 -82.7176 -11.3067 -83.1143 -16.6625 -80.734 -22.4151 -75.3782 -25.9856 -78.3536 -30.548 -69.4272 -32.3333 -69.4272 -37.094 -66.4518 -39.8711 -66.2534 -44.8302 -62.4845 -45.0285 -59.7074 -50.186 -55.5418 -50.3843 -52.1696 -52.9631 -54.7483 -56.732 -50.186 -56.5336 -46.6154 -59.1123 -46.2187 -63.6747 -41.458 -63.0796 -40.4662 -64.6665 -36.6973 -67.2452 -38.2842 -70.4191 -31.1431 -70.8158 -32.3333 -71.2125 -27.9693 -73.3945 -26.3824 -74.5847 -22.2167 -76.7667 -20.4314 -77.7585 0 0zm989.041 -2085.99l338.408 1358 0 0 9.32309 -3.76891 9.52145 -3.57054 7.53782 -3.17382 7.33945 -6.34763 8.728 -3.57054 6.546 -3.57054 2.182 -2.57873 2.77709 -3.37218 1.38854 -0.396727 -2.97545 0.198364 -1.19018 4.56236 -2.77709 4.56236 -1.98364 3.37218 -4.95909 9.12472 -6.14927 11.3067 -2.77709 9.52145 -5.35582 14.8773 -4.76073 13.6871 -4.76073 18.0511 -5.75254 19.8364 -1.38854 20.4314 -5.75254 19.8364 -0.396727 23.2085 -1.19018 24.3987 -1.98364 25.7873 -0.396727 26.7791 1.19018 24.5971 3.96727 27.7709 2.97545 28.9611 4.95909 29.5562 4.56236 30.1513 6.546 30.548 -1352.44 337.218 -18.4478 -78.1552 -16.4642 -78.1552 -11.7035 -78.3536 -9.71981 -78.1552 -5.15745 -78.1552 -3.57054 -80.1389 -1.19018 -77.1634 0.793454 -76.1716 5.15745 -76.37 9.91818 -75.9732 8.13291 -76.9651 16.0674 -74.7831 15.274 -72.9978 19.4396 -72.4027 23.0102 -74.3863 25.5889 -70.8158 31.7382 -72.9978 31.5398 -68.4354 35.5071 -67.4436 41.6563 -69.6256 44.0367 -65.2616 48.7974 -61.6911 49.3925 -62.4845 56.9303 -59.1123 61.096 -57.7238 62.8812 -52.9631 70.4191 -49.5909 74.5847 -45.2269 76.37 -42.8465 78.552 -35.3087 83.3127 -30.548 85.098 -25.5889 0 0zm1852.52 1377.44l-1352.44 337.218 0 0 -8.52963 -30.1513 -10.3149 -28.7627 -9.32309 -28.1676 -10.91 -27.1758 -9.71981 -26.3824 -13.092 -21.4233 -10.1165 -24.2004 -13.8854 -21.82 -12.6953 -21.2249 -10.5133 -17.456 -15.0756 -17.456 -13.4887 -16.6625 -11.9018 -15.6707 -12.6953 -13.6871 -10.3149 -9.71981 -11.9018 -10.7116 -9.32309 -6.546 -8.13291 -7.73618 -5.55418 -3.57054 -6.546 -4.16563 -4.76073 -2.57873 -2.38036 -0.991818 -0.595091 -1.78527 -1.19018 0.396727 3.76891 1.38854 5.75254 0.793454 4.95909 0.595091 9.91818 1.78527 8.92636 -0.595091 8.13291 -0.595091 10.1165 -1.38854 9.71981 -0.991818 -338.408 -1358 87.0816 -17.2576 87.8751 -12.1002 85.8914 -5.75254 86.6849 -0.595091 88.0734 7.33945 82.7176 11.3067 83.1143 16.6625 80.734 22.4151 75.3782 26.184 75.1798 28.366 72.6011 34.3169 69.4272 37.094 66.4518 39.8711 66.2534 44.8302 62.4845 45.0285 59.7074 50.186 55.5418 50.3843 55.5418 54.9467 51.1778 54.9467 50.3843 56.5336 46.4171 59.1123 42.8465 61.4927 45.0285 65.0632 40.4662 64.8649 36.4989 67.0469 37.8874 67.8403 31.7382 73.3945 32.3333 71.2125 27.9693 73.5929 26.3824 74.5847 22.2167 76.7667 20.4314 77.7585 0 0zm-989.041 2085.79l-338.408 -1358 0.595091 2.77709 -9.91818 0.991818 -6.74436 2.97545 -10.3149 3.96727 -10.1165 6.74436 -5.95091 2.97545 -4.16563 2.97545 -4.56236 3.37218 -2.97545 3.17382 1.38854 -0.198364 -0.198364 -1.98364 1.58691 -1.98364 2.77709 -4.56236 1.98364 -3.57054 5.15745 -9.12472 3.37218 -10.7116 7.93454 -10.7116 2.77709 -14.0838 4.76073 -13.6871 4.76073 -18.0511 5.75254 -19.8364 1.38854 -20.4314 5.75254 -20.0347 0.396727 -23.0102 1.38854 -24.3987 2.77709 -23.4069 -2.57873 -25.9856 0.793454 -27.9693 -3.76891 -27.7709 -2.97545 -28.7627 -4.95909 -29.5562 -4.56236 -30.1513 -6.546 -30.548 1352.44 -337.218 18.4478 78.1552 16.4642 78.1552 11.7035 78.3536 9.71981 77.9569 4.95909 78.1552 5.55418 77.1634 -1.38854 77.5602 0 78.9487 -5.35582 76.37 -9.91818 75.7749 -8.13291 77.1634 -16.0674 74.7831 -15.274 72.9978 -19.4396 72.4027 -23.0102 74.3863 -28.1676 71.2125 -26.5807 71.8076 -33.9202 69.0305 -35.7054 67.4436 -41.6563 69.824 -44.0367 65.2616 -48.004 64.2698 -52.9631 60.3025 -54.1533 58.5173 -60.8976 57.9222 -65.6583 53.3598 -67.642 48.9958 -72.2043 44.6318 -78.7503 43.64 -81.3291 35.7054 -80.5356 29.9529 -85.6931 22.8118 0.595091 2.77709z"/>
    </g>
   </g>
  </g>
  <g style="clip-path:url(#id3)">
   <polygon class="fil4" points="-38496,-39189.3 131199,-39189.3 131199,81783.7 -38496,81783.7 "/>
   <g id="Capa_x0020_1_3">
    <metadata id="CorelCorpID_4Corel-Layer"/>
    <polygon id="1" class="fil5 str1" points="9406,23484.3 7973.22,15515.8 4412,15405.1 1135.23,20983.3 607.389,26743.2 2829.85,26546.4 4227.33,22841.4 5682.32,21814 7391.82,26957 10450,27291.9 "/>
    <polygon class="fil5 str1" points="12392.6,10339.1 12236.1,10169.3 12072,10008 11898.8,9846.77 11732.2,9702.56 8819.44,11871.7 8892.64,12178.3 13372.5,12084.1 13303.6,11885.2 13222.5,11675.5 13131.7,11465.8 13030.9,11267.4 12923,11077.6 12805.6,10887.8 12675.6,10698.3 12539,10519.8 "/>
    <polygon class="fil6 str1" points="6167.72,7072.85 5986.81,931.515 6632.29,415.373 10444.4,349.318 10910.6,591.719 10460.7,6995.09 9392.91,7422.96 7808.38,7602.68 6179.82,7489.02 "/>
    <polygon class="fil5 str1" points="2949.47,8609.97 3110.14,8468.74 3260.5,8320.56 3409.47,8163.85 3540.79,8013.09 731.168,5291.74 408.431,5353.63 1200.1,9481.18 1406.2,9421.28 1622.02,9350.26 1836.45,9270.32 2036.8,9181.26 2227.03,9085.25 2415.67,8980.51 2601.93,8864.27 2775.11,8741.49 "/>
    <g>
     <path class="fil7" d="M17137 9846.57l-1001.34 0 0 0 -0.991818 -152.343 -9.12472 -150.36 -12.8936 -147.781 -18.6462 -145.202 -22.2167 -142.227 -29.5562 -139.251 -30.7464 -134.094 -37.8874 -132.308 -41.0613 -128.936 -43.8383 -124.969 -50.5827 -118.82 -50.9794 -116.638 -57.3271 -111.877 -59.7074 -105.331 -61.6911 -102.157 -65.6583 -97.3965 -67.4436 -89.8587 -69.4272 -86.0898 -72.6011 -80.734 -72.006 -72.6011 -75.3782 -68.2371 -76.37 -64.2698 -79.3454 -55.3434 -78.1552 -50.3843 -78.7503 -43.64 -79.3454 -38.2842 -81.7258 -32.73 -81.7258 -27.1758 -81.7258 -19.2413 -81.9242 -15.274 -83.5111 -8.728 -85.098 -2.38036 0 -1001.34 155.319 6.34763 154.128 16.6625 152.145 26.7791 148.376 39.0776 144.409 46.6154 140.441 56.1369 137.664 65.6583 133.895 74.9814 128.936 81.7258 122.192 90.6521 119.613 95.2145 114.257 103.546 111.282 111.877 103.943 115.646 100.372 121.399 94.8178 129.135 89.462 132.308 85.098 137.466 79.1471 144.607 73.1962 147.186 70.4191 151.55 62.0878 158.096 59.7074 160.278 52.5663 163.848 45.822 167.617 42.6482 173.37 33.5234 174.163 29.7545 177.535 22.6134 180.511 16.8609 183.09 9.12472 185.272 4.95909 187.652 0 0zm-35.5071 592.71l-993.405 -105.529 4.56236 -36.6973 12.8936 -147.582 9.12472 -150.558 0.991818 -152.343 1001.34 0 -4.95909 187.652 -9.12472 185.47 -16.8609 182.891 -4.56236 36.6973zm-5641.86 -592.71l1001.34 0 0 0 0.991818 152.343 9.12472 150.558 12.8936 147.582 18.4478 145.202 22.4151 142.227 29.5562 139.45 30.7464 133.895 37.8874 132.507 41.0613 128.936 43.8383 124.771 50.5827 118.82 52.7647 116.638 55.5418 112.075 59.7074 105.133 61.6911 102.356 65.46 97.3965 65.8567 89.8587 71.2125 86.0898 72.6011 80.734 72.006 72.6011 75.3782 68.2371 76.37 64.0714 78.3536 54.7483 -563.353 825.192 -121.2 -90.0571 -119.613 -95.0161 -114.257 -103.546 -111.282 -111.877 -103.943 -115.646 -98.5867 -121.399 -96.8014 -129.135 -89.2636 -132.308 -85.098 -137.664 -79.1471 -144.409 -74.9814 -147.384 -68.6338 -151.55 -62.0878 -158.096 -59.7074 -160.079 -52.5663 -163.848 -45.822 -167.816 -42.6482 -173.171 -33.5234 -174.362 -29.9529 -177.535 -22.4151 -180.511 -16.8609 -182.891 -9.12472 -185.47 -4.95909 -187.652 0 0zm2838.58 -3806l0 1001.34 0 0 -85.098 2.38036 -83.5111 8.728 -81.9242 15.274 -81.7258 19.2413 -81.7258 27.1758 -81.5274 32.73 -79.5438 38.2842 -78.552 43.64 -78.1552 50.3843 -79.3454 55.3434 -76.37 64.2698 -75.3782 68.2371 -72.006 72.6011 -72.6011 80.734 -71.2125 86.0898 -65.8567 89.8587 -65.46 97.3965 -61.6911 102.157 -59.7074 105.331 -57.3271 111.877 -50.9794 116.638 -50.5827 118.82 -43.8383 124.969 -41.0613 128.936 -37.8874 132.308 -30.7464 134.094 -29.5562 139.251 -22.4151 142.227 -18.4478 145.202 -12.8936 147.781 -9.12472 150.36 -0.991818 152.343 -1001.34 0 4.95909 -187.652 9.12472 -185.272 16.8609 -183.09 22.4151 -180.511 29.9529 -177.535 33.5234 -174.163 42.6482 -173.37 45.822 -167.617 52.5663 -163.848 59.7074 -160.278 62.0878 -158.096 70.4191 -151.55 73.1962 -147.186 79.1471 -144.607 85.098 -137.466 89.2636 -132.308 96.8014 -129.135 98.5867 -121.399 103.943 -115.646 111.282 -111.877 114.257 -103.546 119.613 -95.2145 122.192 -90.6521 128.936 -81.7258 133.697 -74.9814 137.863 -65.6583 140.243 -56.1369 144.409 -46.6154 148.376 -39.0776 152.145 -26.7791 154.128 -16.6625 155.319 -6.34763 0 0z"/>
    </g>
    <g>
     <path class="fil8" d="M11433.1 6296.06l1352.44 -337.218 0 0 8.52963 30.1513 10.3149 28.7627 9.32309 28.1676 10.91 26.9774 9.71981 26.3824 13.6871 24.3987 9.32309 21.2249 14.0838 22.0184 12.6953 21.0265 13.6871 19.4396 11.7035 15.6707 13.6871 16.6625 11.7035 15.6707 9.52145 11.5051 13.6871 11.7035 11.9018 10.7116 9.32309 6.546 8.13291 7.73618 5.55418 3.57054 6.546 4.16563 4.76073 2.57873 5.55418 2.97545 -2.57873 0 1.19018 -0.595091 -3.76891 -1.38854 -5.75254 -0.793454 -4.95909 -0.595091 -9.91818 -1.78527 -8.92636 0.595091 -8.13291 0.595091 -10.1165 1.38854 -9.71981 0.991818 338.408 1358 -87.0816 17.2576 -87.8751 12.1002 -85.8914 5.75254 -86.6849 0.595091 -88.0734 -7.33945 -82.7176 -11.3067 -83.1143 -16.6625 -80.734 -22.4151 -75.3782 -25.9856 -78.3536 -30.548 -69.4272 -32.3333 -69.4272 -37.094 -66.4518 -39.8711 -66.2534 -44.8302 -62.4845 -45.0285 -59.7074 -50.186 -55.5418 -50.3843 -52.1696 -52.9631 -54.7483 -56.732 -50.186 -56.5336 -46.6154 -59.1123 -46.2187 -63.6747 -41.458 -63.0796 -40.4662 -64.6665 -36.6973 -67.2452 -38.2842 -70.4191 -31.1431 -70.8158 -32.3333 -71.2125 -27.9693 -73.3945 -26.3824 -74.5847 -22.2167 -76.7667 -20.4314 -77.7585 0 0zm989.041 -2085.99l338.408 1358 0 0 9.32309 -3.76891 9.52145 -3.57054 7.53782 -3.17382 7.33945 -6.34763 8.728 -3.57054 6.546 -3.57054 2.182 -2.57873 2.77709 -3.37218 1.38854 -0.396727 -2.97545 0.198364 -1.19018 4.56236 -2.77709 4.56236 -1.98364 3.37218 -4.95909 9.12472 -6.14927 11.3067 -2.77709 9.52145 -5.35582 14.8773 -4.76073 13.6871 -4.76073 18.0511 -5.75254 19.8364 -1.38854 20.4314 -5.75254 19.8364 -0.396727 23.2085 -1.19018 24.3987 -1.98364 25.7873 -0.396727 26.7791 1.19018 24.5971 3.96727 27.7709 2.97545 28.9611 4.95909 29.5562 4.56236 30.1513 6.546 30.548 -1352.44 337.218 -18.4478 -78.1552 -16.4642 -78.1552 -11.7035 -78.3536 -9.71981 -78.1552 -5.15745 -78.1552 -3.57054 -80.1389 -1.19018 -77.1634 0.793454 -76.1716 5.15745 -76.37 9.91818 -75.9732 8.13291 -76.9651 16.0674 -74.7831 15.274 -72.9978 19.4396 -72.4027 23.0102 -74.3863 25.5889 -70.8158 31.7382 -72.9978 31.5398 -68.4354 35.5071 -67.4436 41.6563 -69.6256 44.0367 -65.2616 48.7974 -61.6911 49.3925 -62.4845 56.9303 -59.1123 61.096 -57.7238 62.8812 -52.9631 70.4191 -49.5909 74.5847 -45.2269 76.37 -42.8465 78.552 -35.3087 83.3127 -30.548 85.098 -25.5889 0 0zm1852.52 1377.44l-1352.44 337.218 0 0 -8.52963 -30.1513 -10.3149 -28.7627 -9.32309 -28.1676 -10.91 -27.1758 -9.71981 -26.3824 -13.092 -21.4233 -10.1165 -24.2004 -13.8854 -21.82 -12.6953 -21.2249 -10.5133 -17.456 -15.0756 -17.456 -13.4887 -16.6625 -11.9018 -15.6707 -12.6953 -13.6871 -10.3149 -9.71981 -11.9018 -10.7116 -9.32309 -6.546 -8.13291 -7.73618 -5.55418 -3.57054 -6.546 -4.16563 -4.76073 -2.57873 -2.38036 -0.991818 -0.595091 -1.78527 -1.19018 0.396727 3.76891 1.38854 5.75254 0.793454 4.95909 0.595091 9.91818 1.78527 8.92636 -0.595091 8.13291 -0.595091 10.1165 -1.38854 9.71981 -0.991818 -338.408 -1358 87.0816 -17.2576 87.8751 -12.1002 85.8914 -5.75254 86.6849 -0.595091 88.0734 7.33945 82.7176 11.3067 83.1143 16.6625 80.734 22.4151 75.3782 26.184 75.1798 28.366 72.6011 34.3169 69.4272 37.094 66.4518 39.8711 66.2534 44.8302 62.4845 45.0285 59.7074 50.186 55.5418 50.3843 55.5418 54.9467 51.1778 54.9467 50.3843 56.5336 46.4171 59.1123 42.8465 61.4927 45.0285 65.0632 40.4662 64.8649 36.4989 67.0469 37.8874 67.8403 31.7382 73.3945 32.3333 71.2125 27.9693 73.5929 26.3824 74.5847 22.2167 76.7667 20.4314 77.7585 0 0zm-989.041 2085.79l-338.408 -1358 0.595091 2.77709 -9.91818 0.991818 -6.74436 2.97545 -10.3149 3.96727 -10.1165 6.74436 -5.95091 2.97545 -4.16563 2.97545 -4.56236 3.37218 -2.97545 3.17382 1.38854 -0.198364 -0.198364 -1.98364 1.58691 -1.98364 2.77709 -4.56236 1.98364 -3.57054 5.15745 -9.12472 3.37218 -10.7116 7.93454 -10.7116 2.77709 -14.0838 4.76073 -13.6871 4.76073 -18.0511 5.75254 -19.8364 1.38854 -20.4314 5.75254 -20.0347 0.396727 -23.0102 1.38854 -24.3987 2.77709 -23.4069 -2.57873 -25.9856 0.793454 -27.9693 -3.76891 -27.7709 -2.97545 -28.7627 -4.95909 -29.5562 -4.56236 -30.1513 -6.546 -30.548 1352.44 -337.218 18.4478 78.1552 16.4642 78.1552 11.7035 78.3536 9.71981 77.9569 4.95909 78.1552 5.55418 77.1634 -1.38854 77.5602 0 78.9487 -5.35582 76.37 -9.91818 75.7749 -8.13291 77.1634 -16.0674 74.7831 -15.274 72.9978 -19.4396 72.4027 -23.0102 74.3863 -28.1676 71.2125 -26.5807 71.8076 -33.9202 69.0305 -35.7054 67.4436 -41.6563 69.824 -44.0367 65.2616 -48.004 64.2698 -52.9631 60.3025 -54.1533 58.5173 -60.8976 57.9222 -65.6583 53.3598 -67.642 48.9958 -72.2043 44.6318 -78.7503 43.64 -81.3291 35.7054 -80.5356 29.9529 -85.6931 22.8118 0.595091 2.77709z"/>
    </g>
   </g>
  </g>
  <g style="clip-path:url(#id4)">
   <polygon class="fil4" points="-38496,-39189.3 131199,-39189.3 131199,81783.7 -38496,81783.7 "/>
   <g id="Capa_x0020_1_4">
    <metadata id="CorelCorpID_5Corel-Layer"/>
    <polygon id="1" class="fil5 str1" points="9406,23484.3 7973.22,15515.8 4412,15405.1 1135.23,20983.3 607.389,26743.2 2829.85,26546.4 4227.33,22841.4 5682.32,21814 7391.82,26957 10450,27291.9 "/>
    <polygon class="fil5 str1" points="12392.6,10339.1 12236.1,10169.3 12072,10008 11898.8,9846.77 11732.2,9702.56 8819.44,11871.7 8892.64,12178.3 13372.5,12084.1 13303.6,11885.2 13222.5,11675.5 13131.7,11465.8 13030.9,11267.4 12923,11077.6 12805.6,10887.8 12675.6,10698.3 12539,10519.8 "/>
    <polygon class="fil6 str1" points="6167.72,7072.85 5986.81,931.515 6632.29,415.373 10444.4,349.318 10910.6,591.719 10460.7,6995.09 9392.91,7422.96 7808.38,7602.68 6179.82,7489.02 "/>
    <polygon class="fil5 str1" points="2949.47,8609.97 3110.14,8468.74 3260.5,8320.56 3409.47,8163.85 3540.79,8013.09 731.168,5291.74 408.431,5353.63 1200.1,9481.18 1406.2,9421.28 1622.02,9350.26 1836.45,9270.32 2036.8,9181.26 2227.03,9085.25 2415.67,8980.51 2601.93,8864.27 2775.11,8741.49 "/>
    <g>
     <path class="fil7" d="M17137 9846.57l-1001.34 0 0 0 -0.991818 -152.343 -9.12472 -150.36 -12.8936 -147.781 -18.6462 -145.202 -22.2167 -142.227 -29.5562 -139.251 -30.7464 -134.094 -37.8874 -132.308 -41.0613 -128.936 -43.8383 -124.969 -50.5827 -118.82 -50.9794 -116.638 -57.3271 -111.877 -59.7074 -105.331 -61.6911 -102.157 -65.6583 -97.3965 -67.4436 -89.8587 -69.4272 -86.0898 -72.6011 -80.734 -72.006 -72.6011 -75.3782 -68.2371 -76.37 -64.2698 -79.3454 -55.3434 -78.1552 -50.3843 -78.7503 -43.64 -79.3454 -38.2842 -81.7258 -32.73 -81.7258 -27.1758 -81.7258 -19.2413 -81.9242 -15.274 -83.5111 -8.728 -85.098 -2.38036 0 -1001.34 155.319 6.34763 154.128 16.6625 152.145 26.7791 148.376 39.0776 144.409 46.6154 140.441 56.1369 137.664 65.6583 133.895 74.9814 128.936 81.7258 122.192 90.6521 119.613 95.2145 114.257 103.546 111.282 111.877 103.943 115.646 100.372 121.399 94.8178 129.135 89.462 132.308 85.098 137.466 79.1471 144.607 73.1962 147.186 70.4191 151.55 62.0878 158.096 59.7074 160.278 52.5663 163.848 45.822 167.617 42.6482 173.37 33.5234 174.163 29.7545 177.535 22.6134 180.511 16.8609 183.09 9.12472 185.272 4.95909 187.652 0 0zm-35.5071 592.71l-993.405 -105.529 4.56236 -36.6973 12.8936 -147.582 9.12472 -150.558 0.991818 -152.343 1001.34 0 -4.95909 187.652 -9.12472 185.47 -16.8609 182.891 -4.56236 36.6973zm-5641.86 -592.71l1001.34 0 0 0 0.991818 152.343 9.12472 150.558 12.8936 147.582 18.4478 145.202 22.4151 142.227 29.5562 139.45 30.7464 133.895 37.8874 132.507 41.0613 128.936 43.8383 124.771 50.5827 118.82 52.7647 116.638 55.5418 112.075 59.7074 105.133 61.6911 102.356 65.46 97.3965 65.8567 89.8587 71.2125 86.0898 72.6011 80.734 72.006 72.6011 75.3782 68.2371 76.37 64.0714 78.3536 54.7483 -563.353 825.192 -121.2 -90.0571 -119.613 -95.0161 -114.257 -103.546 -111.282 -111.877 -103.943 -115.646 -98.5867 -121.399 -96.8014 -129.135 -89.2636 -132.308 -85.098 -137.664 -79.1471 -144.409 -74.9814 -147.384 -68.6338 -151.55 -62.0878 -158.096 -59.7074 -160.079 -52.5663 -163.848 -45.822 -167.816 -42.6482 -173.171 -33.5234 -174.362 -29.9529 -177.535 -22.4151 -180.511 -16.8609 -182.891 -9.12472 -185.47 -4.95909 -187.652 0 0zm2838.58 -3806l0 1001.34 0 0 -85.098 2.38036 -83.5111 8.728 -81.9242 15.274 -81.7258 19.2413 -81.7258 27.1758 -81.5274 32.73 -79.5438 38.2842 -78.552 43.64 -78.1552 50.3843 -79.3454 55.3434 -76.37 64.2698 -75.3782 68.2371 -72.006 72.6011 -72.6011 80.734 -71.2125 86.0898 -65.8567 89.8587 -65.46 97.3965 -61.6911 102.157 -59.7074 105.331 -57.3271 111.877 -50.9794 116.638 -50.5827 118.82 -43.8383 124.969 -41.0613 128.936 -37.8874 132.308 -30.7464 134.094 -29.5562 139.251 -22.4151 142.227 -18.4478 145.202 -12.8936 147.781 -9.12472 150.36 -0.991818 152.343 -1001.34 0 4.95909 -187.652 9.12472 -185.272 16.8609 -183.09 22.4151 -180.511 29.9529 -177.535 33.5234 -174.163 42.6482 -173.37 45.822 -167.617 52.5663 -163.848 59.7074 -160.278 62.0878 -158.096 70.4191 -151.55 73.1962 -147.186 79.1471 -144.607 85.098 -137.466 89.2636 -132.308 96.8014 -129.135 98.5867 -121.399 103.943 -115.646 111.282 -111.877 114.257 -103.546 119.613 -95.2145 122.192 -90.6521 128.936 -81.7258 133.697 -74.9814 137.863 -65.6583 140.243 -56.1369 144.409 -46.6154 148.376 -39.0776 152.145 -26.7791 154.128 -16.6625 155.319 -6.34763 0 0z"/>
    </g>
    <g>
     <path class="fil8" d="M11433.1 6296.06l1352.44 -337.218 0 0 8.52963 30.1513 10.3149 28.7627 9.32309 28.1676 10.91 26.9774 9.71981 26.3824 13.6871 24.3987 9.32309 21.2249 14.0838 22.0184 12.6953 21.0265 13.6871 19.4396 11.7035 15.6707 13.6871 16.6625 11.7035 15.6707 9.52145 11.5051 13.6871 11.7035 11.9018 10.7116 9.32309 6.546 8.13291 7.73618 5.55418 3.57054 6.546 4.16563 4.76073 2.57873 5.55418 2.97545 -2.57873 0 1.19018 -0.595091 -3.76891 -1.38854 -5.75254 -0.793454 -4.95909 -0.595091 -9.91818 -1.78527 -8.92636 0.595091 -8.13291 0.595091 -10.1165 1.38854 -9.71981 0.991818 338.408 1358 -87.0816 17.2576 -87.8751 12.1002 -85.8914 5.75254 -86.6849 0.595091 -88.0734 -7.33945 -82.7176 -11.3067 -83.1143 -16.6625 -80.734 -22.4151 -75.3782 -25.9856 -78.3536 -30.548 -69.4272 -32.3333 -69.4272 -37.094 -66.4518 -39.8711 -66.2534 -44.8302 -62.4845 -45.0285 -59.7074 -50.186 -55.5418 -50.3843 -52.1696 -52.9631 -54.7483 -56.732 -50.186 -56.5336 -46.6154 -59.1123 -46.2187 -63.6747 -41.458 -63.0796 -40.4662 -64.6665 -36.6973 -67.2452 -38.2842 -70.4191 -31.1431 -70.8158 -32.3333 -71.2125 -27.9693 -73.3945 -26.3824 -74.5847 -22.2167 -76.7667 -20.4314 -77.7585 0 0zm989.041 -2085.99l338.408 1358 0 0 9.32309 -3.76891 9.52145 -3.57054 7.53782 -3.17382 7.33945 -6.34763 8.728 -3.57054 6.546 -3.57054 2.182 -2.57873 2.77709 -3.37218 1.38854 -0.396727 -2.97545 0.198364 -1.19018 4.56236 -2.77709 4.56236 -1.98364 3.37218 -4.95909 9.12472 -6.14927 11.3067 -2.77709 9.52145 -5.35582 14.8773 -4.76073 13.6871 -4.76073 18.0511 -5.75254 19.8364 -1.38854 20.4314 -5.75254 19.8364 -0.396727 23.2085 -1.19018 24.3987 -1.98364 25.7873 -0.396727 26.7791 1.19018 24.5971 3.96727 27.7709 2.97545 28.9611 4.95909 29.5562 4.56236 30.1513 6.546 30.548 -1352.44 337.218 -18.4478 -78.1552 -16.4642 -78.1552 -11.7035 -78.3536 -9.71981 -78.1552 -5.15745 -78.1552 -3.57054 -80.1389 -1.19018 -77.1634 0.793454 -76.1716 5.15745 -76.37 9.91818 -75.9732 8.13291 -76.9651 16.0674 -74.7831 15.274 -72.9978 19.4396 -72.4027 23.0102 -74.3863 25.5889 -70.8158 31.7382 -72.9978 31.5398 -68.4354 35.5071 -67.4436 41.6563 -69.6256 44.0367 -65.2616 48.7974 -61.6911 49.3925 -62.4845 56.9303 -59.1123 61.096 -57.7238 62.8812 -52.9631 70.4191 -49.5909 74.5847 -45.2269 76.37 -42.8465 78.552 -35.3087 83.3127 -30.548 85.098 -25.5889 0 0zm1852.52 1377.44l-1352.44 337.218 0 0 -8.52963 -30.1513 -10.3149 -28.7627 -9.32309 -28.1676 -10.91 -27.1758 -9.71981 -26.3824 -13.092 -21.4233 -10.1165 -24.2004 -13.8854 -21.82 -12.6953 -21.2249 -10.5133 -17.456 -15.0756 -17.456 -13.4887 -16.6625 -11.9018 -15.6707 -12.6953 -13.6871 -10.3149 -9.71981 -11.9018 -10.7116 -9.32309 -6.546 -8.13291 -7.73618 -5.55418 -3.57054 -6.546 -4.16563 -4.76073 -2.57873 -2.38036 -0.991818 -0.595091 -1.78527 -1.19018 0.396727 3.76891 1.38854 5.75254 0.793454 4.95909 0.595091 9.91818 1.78527 8.92636 -0.595091 8.13291 -0.595091 10.1165 -1.38854 9.71981 -0.991818 -338.408 -1358 87.0816 -17.2576 87.8751 -12.1002 85.8914 -5.75254 86.6849 -0.595091 88.0734 7.33945 82.7176 11.3067 83.1143 16.6625 80.734 22.4151 75.3782 26.184 75.1798 28.366 72.6011 34.3169 69.4272 37.094 66.4518 39.8711 66.2534 44.8302 62.4845 45.0285 59.7074 50.186 55.5418 50.3843 55.5418 54.9467 51.1778 54.9467 50.3843 56.5336 46.4171 59.1123 42.8465 61.4927 45.0285 65.0632 40.4662 64.8649 36.4989 67.0469 37.8874 67.8403 31.7382 73.3945 32.3333 71.2125 27.9693 73.5929 26.3824 74.5847 22.2167 76.7667 20.4314 77.7585 0 0zm-989.041 2085.79l-338.408 -1358 0.595091 2.77709 -9.91818 0.991818 -6.74436 2.97545 -10.3149 3.96727 -10.1165 6.74436 -5.95091 2.97545 -4.16563 2.97545 -4.56236 3.37218 -2.97545 3.17382 1.38854 -0.198364 -0.198364 -1.98364 1.58691 -1.98364 2.77709 -4.56236 1.98364 -3.57054 5.15745 -9.12472 3.37218 -10.7116 7.93454 -10.7116 2.77709 -14.0838 4.76073 -13.6871 4.76073 -18.0511 5.75254 -19.8364 1.38854 -20.4314 5.75254 -20.0347 0.396727 -23.0102 1.38854 -24.3987 2.77709 -23.4069 -2.57873 -25.9856 0.793454 -27.9693 -3.76891 -27.7709 -2.97545 -28.7627 -4.95909 -29.5562 -4.56236 -30.1513 -6.546 -30.548 1352.44 -337.218 18.4478 78.1552 16.4642 78.1552 11.7035 78.3536 9.71981 77.9569 4.95909 78.1552 5.55418 77.1634 -1.38854 77.5602 0 78.9487 -5.35582 76.37 -9.91818 75.7749 -8.13291 77.1634 -16.0674 74.7831 -15.274 72.9978 -19.4396 72.4027 -23.0102 74.3863 -28.1676 71.2125 -26.5807 71.8076 -33.9202 69.0305 -35.7054 67.4436 -41.6563 69.824 -44.0367 65.2616 -48.004 64.2698 -52.9631 60.3025 -54.1533 58.5173 -60.8976 57.9222 -65.6583 53.3598 -67.642 48.9958 -72.2043 44.6318 -78.7503 43.64 -81.3291 35.7054 -80.5356 29.9529 -85.6931 22.8118 0.595091 2.77709z"/>
    </g>
   </g>
  </g>
  <g style="clip-path:url(#id5)">
   <polygon class="fil4" points="-38496,-39189.3 131199,-39189.3 131199,81783.7 -38496,81783.7 "/>
   <g id="Capa_x0020_1_5">
    <metadata id="CorelCorpID_6Corel-Layer"/>
    <polygon id="1" class="fil5 str1" points="9406,23484.3 7973.22,15515.8 4412,15405.1 1135.23,20983.3 607.389,26743.2 2829.85,26546.4 4227.33,22841.4 5682.32,21814 7391.82,26957 10450,27291.9 "/>
    <polygon class="fil5 str1" points="12392.6,10339.1 12236.1,10169.3 12072,10008 11898.8,9846.77 11732.2,9702.56 8819.44,11871.7 8892.64,12178.3 13372.5,12084.1 13303.6,11885.2 13222.5,11675.5 13131.7,11465.8 13030.9,11267.4 12923,11077.6 12805.6,10887.8 12675.6,10698.3 12539,10519.8 "/>
    <polygon class="fil6 str1" points="6167.72,7072.85 5986.81,931.515 6632.29,415.373 10444.4,349.318 10910.6,591.719 10460.7,6995.09 9392.91,7422.96 7808.38,7602.68 6179.82,7489.02 "/>
    <polygon class="fil5 str1" points="2949.47,8609.97 3110.14,8468.74 3260.5,8320.56 3409.47,8163.85 3540.79,8013.09 731.168,5291.74 408.431,5353.63 1200.1,9481.18 1406.2,9421.28 1622.02,9350.26 1836.45,9270.32 2036.8,9181.26 2227.03,9085.25 2415.67,8980.51 2601.93,8864.27 2775.11,8741.49 "/>
    <g>
     <path class="fil7" d="M17137 9846.57l-1001.34 0 0 0 -0.991818 -152.343 -9.12472 -150.36 -12.8936 -147.781 -18.6462 -145.202 -22.2167 -142.227 -29.5562 -139.251 -30.7464 -134.094 -37.8874 -132.308 -41.0613 -128.936 -43.8383 -124.969 -50.5827 -118.82 -50.9794 -116.638 -57.3271 -111.877 -59.7074 -105.331 -61.6911 -102.157 -65.6583 -97.3965 -67.4436 -89.8587 -69.4272 -86.0898 -72.6011 -80.734 -72.006 -72.6011 -75.3782 -68.2371 -76.37 -64.2698 -79.3454 -55.3434 -78.1552 -50.3843 -78.7503 -43.64 -79.3454 -38.2842 -81.7258 -32.73 -81.7258 -27.1758 -81.7258 -19.2413 -81.9242 -15.274 -83.5111 -8.728 -85.098 -2.38036 0 -1001.34 155.319 6.34763 154.128 16.6625 152.145 26.7791 148.376 39.0776 144.409 46.6154 140.441 56.1369 137.664 65.6583 133.895 74.9814 128.936 81.7258 122.192 90.6521 119.613 95.2145 114.257 103.546 111.282 111.877 103.943 115.646 100.372 121.399 94.8178 129.135 89.462 132.308 85.098 137.466 79.1471 144.607 73.1962 147.186 70.4191 151.55 62.0878 158.096 59.7074 160.278 52.5663 163.848 45.822 167.617 42.6482 173.37 33.5234 174.163 29.7545 177.535 22.6134 180.511 16.8609 183.09 9.12472 185.272 4.95909 187.652 0 0zm-35.5071 592.71l-993.405 -105.529 4.56236 -36.6973 12.8936 -147.582 9.12472 -150.558 0.991818 -152.343 1001.34 0 -4.95909 187.652 -9.12472 185.47 -16.8609 182.891 -4.56236 36.6973zm-5641.86 -592.71l1001.34 0 0 0 0.991818 152.343 9.12472 150.558 12.8936 147.582 18.4478 145.202 22.4151 142.227 29.5562 139.45 30.7464 133.895 37.8874 132.507 41.0613 128.936 43.8383 124.771 50.5827 118.82 52.7647 116.638 55.5418 112.075 59.7074 105.133 61.6911 102.356 65.46 97.3965 65.8567 89.8587 71.2125 86.0898 72.6011 80.734 72.006 72.6011 75.3782 68.2371 76.37 64.0714 78.3536 54.7483 -563.353 825.192 -121.2 -90.0571 -119.613 -95.0161 -114.257 -103.546 -111.282 -111.877 -103.943 -115.646 -98.5867 -121.399 -96.8014 -129.135 -89.2636 -132.308 -85.098 -137.664 -79.1471 -144.409 -74.9814 -147.384 -68.6338 -151.55 -62.0878 -158.096 -59.7074 -160.079 -52.5663 -163.848 -45.822 -167.816 -42.6482 -173.171 -33.5234 -174.362 -29.9529 -177.535 -22.4151 -180.511 -16.8609 -182.891 -9.12472 -185.47 -4.95909 -187.652 0 0zm2838.58 -3806l0 1001.34 0 0 -85.098 2.38036 -83.5111 8.728 -81.9242 15.274 -81.7258 19.2413 -81.7258 27.1758 -81.5274 32.73 -79.5438 38.2842 -78.552 43.64 -78.1552 50.3843 -79.3454 55.3434 -76.37 64.2698 -75.3782 68.2371 -72.006 72.6011 -72.6011 80.734 -71.2125 86.0898 -65.8567 89.8587 -65.46 97.3965 -61.6911 102.157 -59.7074 105.331 -57.3271 111.877 -50.9794 116.638 -50.5827 118.82 -43.8383 124.969 -41.0613 128.936 -37.8874 132.308 -30.7464 134.094 -29.5562 139.251 -22.4151 142.227 -18.4478 145.202 -12.8936 147.781 -9.12472 150.36 -0.991818 152.343 -1001.34 0 4.95909 -187.652 9.12472 -185.272 16.8609 -183.09 22.4151 -180.511 29.9529 -177.535 33.5234 -174.163 42.6482 -173.37 45.822 -167.617 52.5663 -163.848 59.7074 -160.278 62.0878 -158.096 70.4191 -151.55 73.1962 -147.186 79.1471 -144.607 85.098 -137.466 89.2636 -132.308 96.8014 -129.135 98.5867 -121.399 103.943 -115.646 111.282 -111.877 114.257 -103.546 119.613 -95.2145 122.192 -90.6521 128.936 -81.7258 133.697 -74.9814 137.863 -65.6583 140.243 -56.1369 144.409 -46.6154 148.376 -39.0776 152.145 -26.7791 154.128 -16.6625 155.319 -6.34763 0 0z"/>
    </g>
    <g>
     <path class="fil8" d="M11433.1 6296.06l1352.44 -337.218 0 0 8.52963 30.1513 10.3149 28.7627 9.32309 28.1676 10.91 26.9774 9.71981 26.3824 13.6871 24.3987 9.32309 21.2249 14.0838 22.0184 12.6953 21.0265 13.6871 19.4396 11.7035 15.6707 13.6871 16.6625 11.7035 15.6707 9.52145 11.5051 13.6871 11.7035 11.9018 10.7116 9.32309 6.546 8.13291 7.73618 5.55418 3.57054 6.546 4.16563 4.76073 2.57873 5.55418 2.97545 -2.57873 0 1.19018 -0.595091 -3.76891 -1.38854 -5.75254 -0.793454 -4.95909 -0.595091 -9.91818 -1.78527 -8.92636 0.595091 -8.13291 0.595091 -10.1165 1.38854 -9.71981 0.991818 338.408 1358 -87.0816 17.2576 -87.8751 12.1002 -85.8914 5.75254 -86.6849 0.595091 -88.0734 -7.33945 -82.7176 -11.3067 -83.1143 -16.6625 -80.734 -22.4151 -75.3782 -25.9856 -78.3536 -30.548 -69.4272 -32.3333 -69.4272 -37.094 -66.4518 -39.8711 -66.2534 -44.8302 -62.4845 -45.0285 -59.7074 -50.186 -55.5418 -50.3843 -52.1696 -52.9631 -54.7483 -56.732 -50.186 -56.5336 -46.6154 -59.1123 -46.2187 -63.6747 -41.458 -63.0796 -40.4662 -64.6665 -36.6973 -67.2452 -38.2842 -70.4191 -31.1431 -70.8158 -32.3333 -71.2125 -27.9693 -73.3945 -26.3824 -74.5847 -22.2167 -76.7667 -20.4314 -77.7585 0 0zm989.041 -2085.99l338.408 1358 0 0 9.32309 -3.76891 9.52145 -3.57054 7.53782 -3.17382 7.33945 -6.34763 8.728 -3.57054 6.546 -3.57054 2.182 -2.57873 2.77709 -3.37218 1.38854 -0.396727 -2.97545 0.198364 -1.19018 4.56236 -2.77709 4.56236 -1.98364 3.37218 -4.95909 9.12472 -6.14927 11.3067 -2.77709 9.52145 -5.35582 14.8773 -4.76073 13.6871 -4.76073 18.0511 -5.75254 19.8364 -1.38854 20.4314 -5.75254 19.8364 -0.396727 23.2085 -1.19018 24.3987 -1.98364 25.7873 -0.396727 26.7791 1.19018 24.5971 3.96727 27.7709 2.97545 28.9611 4.95909 29.5562 4.56236 30.1513 6.546 30.548 -1352.44 337.218 -18.4478 -78.1552 -16.4642 -78.1552 -11.7035 -78.3536 -9.71981 -78.1552 -5.15745 -78.1552 -3.57054 -80.1389 -1.19018 -77.1634 0.793454 -76.1716 5.15745 -76.37 9.91818 -75.9732 8.13291 -76.9651 16.0674 -74.7831 15.274 -72.9978 19.4396 -72.4027 23.0102 -74.3863 25.5889 -70.8158 31.7382 -72.9978 31.5398 -68.4354 35.5071 -67.4436 41.6563 -69.6256 44.0367 -65.2616 48.7974 -61.6911 49.3925 -62.4845 56.9303 -59.1123 61.096 -57.7238 62.8812 -52.9631 70.4191 -49.5909 74.5847 -45.2269 76.37 -42.8465 78.552 -35.3087 83.3127 -30.548 85.098 -25.5889 0 0zm1852.52 1377.44l-1352.44 337.218 0 0 -8.52963 -30.1513 -10.3149 -28.7627 -9.32309 -28.1676 -10.91 -27.1758 -9.71981 -26.3824 -13.092 -21.4233 -10.1165 -24.2004 -13.8854 -21.82 -12.6953 -21.2249 -10.5133 -17.456 -15.0756 -17.456 -13.4887 -16.6625 -11.9018 -15.6707 -12.6953 -13.6871 -10.3149 -9.71981 -11.9018 -10.7116 -9.32309 -6.546 -8.13291 -7.73618 -5.55418 -3.57054 -6.546 -4.16563 -4.76073 -2.57873 -2.38036 -0.991818 -0.595091 -1.78527 -1.19018 0.396727 3.76891 1.38854 5.75254 0.793454 4.95909 0.595091 9.91818 1.78527 8.92636 -0.595091 8.13291 -0.595091 10.1165 -1.38854 9.71981 -0.991818 -338.408 -1358 87.0816 -17.2576 87.8751 -12.1002 85.8914 -5.75254 86.6849 -0.595091 88.0734 7.33945 82.7176 11.3067 83.1143 16.6625 80.734 22.4151 75.3782 26.184 75.1798 28.366 72.6011 34.3169 69.4272 37.094 66.4518 39.8711 66.2534 44.8302 62.4845 45.0285 59.7074 50.186 55.5418 50.3843 55.5418 54.9467 51.1778 54.9467 50.3843 56.5336 46.4171 59.1123 42.8465 61.4927 45.0285 65.0632 40.4662 64.8649 36.4989 67.0469 37.8874 67.8403 31.7382 73.3945 32.3333 71.2125 27.9693 73.5929 26.3824 74.5847 22.2167 76.7667 20.4314 77.7585 0 0zm-989.041 2085.79l-338.408 -1358 0.595091 2.77709 -9.91818 0.991818 -6.74436 2.97545 -10.3149 3.96727 -10.1165 6.74436 -5.95091 2.97545 -4.16563 2.97545 -4.56236 3.37218 -2.97545 3.17382 1.38854 -0.198364 -0.198364 -1.98364 1.58691 -1.98364 2.77709 -4.56236 1.98364 -3.57054 5.15745 -9.12472 3.37218 -10.7116 7.93454 -10.7116 2.77709 -14.0838 4.76073 -13.6871 4.76073 -18.0511 5.75254 -19.8364 1.38854 -20.4314 5.75254 -20.0347 0.396727 -23.0102 1.38854 -24.3987 2.77709 -23.4069 -2.57873 -25.9856 0.793454 -27.9693 -3.76891 -27.7709 -2.97545 -28.7627 -4.95909 -29.5562 -4.56236 -30.1513 -6.546 -30.548 1352.44 -337.218 18.4478 78.1552 16.4642 78.1552 11.7035 78.3536 9.71981 77.9569 4.95909 78.1552 5.55418 77.1634 -1.38854 77.5602 0 78.9487 -5.35582 76.37 -9.91818 75.7749 -8.13291 77.1634 -16.0674 74.7831 -15.274 72.9978 -19.4396 72.4027 -23.0102 74.3863 -28.1676 71.2125 -26.5807 71.8076 -33.9202 69.0305 -35.7054 67.4436 -41.6563 69.824 -44.0367 65.2616 -48.004 64.2698 -52.9631 60.3025 -54.1533 58.5173 -60.8976 57.9222 -65.6583 53.3598 -67.642 48.9958 -72.2043 44.6318 -78.7503 43.64 -81.3291 35.7054 -80.5356 29.9529 -85.6931 22.8118 0.595091 2.77709z"/>
    </g>
   </g>
  </g>
  <g style="clip-path:url(#id6)">
   <polygon class="fil4" points="-38496,-39189.3 131199,-39189.3 131199,81783.7 -38496,81783.7 "/>
   <g id="Capa_x0020_1_6">
    <metadata id="CorelCorpID_7Corel-Layer"/>
    <polygon id="1" class="fil5 str1" points="9406,23484.3 7973.22,15515.8 4412,15405.1 1135.23,20983.3 607.389,26743.2 2829.85,26546.4 4227.33,22841.4 5682.32,21814 7391.82,26957 10450,27291.9 "/>
    <polygon class="fil5 str1" points="12392.6,10339.1 12236.1,10169.3 12072,10008 11898.8,9846.77 11732.2,9702.56 8819.44,11871.7 8892.64,12178.3 13372.5,12084.1 13303.6,11885.2 13222.5,11675.5 13131.7,11465.8 13030.9,11267.4 12923,11077.6 12805.6,10887.8 12675.6,10698.3 12539,10519.8 "/>
    <polygon class="fil6 str1" points="6167.72,7072.85 5986.81,931.515 6632.29,415.373 10444.4,349.318 10910.6,591.719 10460.7,6995.09 9392.91,7422.96 7808.38,7602.68 6179.82,7489.02 "/>
    <polygon class="fil5 str1" points="2949.47,8609.97 3110.14,8468.74 3260.5,8320.56 3409.47,8163.85 3540.79,8013.09 731.168,5291.74 408.431,5353.63 1200.1,9481.18 1406.2,9421.28 1622.02,9350.26 1836.45,9270.32 2036.8,9181.26 2227.03,9085.25 2415.67,8980.51 2601.93,8864.27 2775.11,8741.49 "/>
    <g>
     <path class="fil7" d="M17137 9846.57l-1001.34 0 0 0 -0.991818 -152.343 -9.12472 -150.36 -12.8936 -147.781 -18.6462 -145.202 -22.2167 -142.227 -29.5562 -139.251 -30.7464 -134.094 -37.8874 -132.308 -41.0613 -128.936 -43.8383 -124.969 -50.5827 -118.82 -50.9794 -116.638 -57.3271 -111.877 -59.7074 -105.331 -61.6911 -102.157 -65.6583 -97.3965 -67.4436 -89.8587 -69.4272 -86.0898 -72.6011 -80.734 -72.006 -72.6011 -75.3782 -68.2371 -76.37 -64.2698 -79.3454 -55.3434 -78.1552 -50.3843 -78.7503 -43.64 -79.3454 -38.2842 -81.7258 -32.73 -81.7258 -27.1758 -81.7258 -19.2413 -81.9242 -15.274 -83.5111 -8.728 -85.098 -2.38036 0 -1001.34 155.319 6.34763 154.128 16.6625 152.145 26.7791 148.376 39.0776 144.409 46.6154 140.441 56.1369 137.664 65.6583 133.895 74.9814 128.936 81.7258 122.192 90.6521 119.613 95.2145 114.257 103.546 111.282 111.877 103.943 115.646 100.372 121.399 94.8178 129.135 89.462 132.308 85.098 137.466 79.1471 144.607 73.1962 147.186 70.4191 151.55 62.0878 158.096 59.7074 160.278 52.5663 163.848 45.822 167.617 42.6482 173.37 33.5234 174.163 29.7545 177.535 22.6134 180.511 16.8609 183.09 9.12472 185.272 4.95909 187.652 0 0zm-35.5071 592.71l-993.405 -105.529 4.56236 -36.6973 12.8936 -147.582 9.12472 -150.558 0.991818 -152.343 1001.34 0 -4.95909 187.652 -9.12472 185.47 -16.8609 182.891 -4.56236 36.6973zm-5641.86 -592.71l1001.34 0 0 0 0.991818 152.343 9.12472 150.558 12.8936 147.582 18.4478 145.202 22.4151 142.227 29.5562 139.45 30.7464 133.895 37.8874 132.507 41.0613 128.936 43.8383 124.771 50.5827 118.82 52.7647 116.638 55.5418 112.075 59.7074 105.133 61.6911 102.356 65.46 97.3965 65.8567 89.8587 71.2125 86.0898 72.6011 80.734 72.006 72.6011 75.3782 68.2371 76.37 64.0714 78.3536 54.7483 -563.353 825.192 -121.2 -90.0571 -119.613 -95.0161 -114.257 -103.546 -111.282 -111.877 -103.943 -115.646 -98.5867 -121.399 -96.8014 -129.135 -89.2636 -132.308 -85.098 -137.664 -79.1471 -144.409 -74.9814 -147.384 -68.6338 -151.55 -62.0878 -158.096 -59.7074 -160.079 -52.5663 -163.848 -45.822 -167.816 -42.6482 -173.171 -33.5234 -174.362 -29.9529 -177.535 -22.4151 -180.511 -16.8609 -182.891 -9.12472 -185.47 -4.95909 -187.652 0 0zm2838.58 -3806l0 1001.34 0 0 -85.098 2.38036 -83.5111 8.728 -81.9242 15.274 -81.7258 19.2413 -81.7258 27.1758 -81.5274 32.73 -79.5438 38.2842 -78.552 43.64 -78.1552 50.3843 -79.3454 55.3434 -76.37 64.2698 -75.3782 68.2371 -72.006 72.6011 -72.6011 80.734 -71.2125 86.0898 -65.8567 89.8587 -65.46 97.3965 -61.6911 102.157 -59.7074 105.331 -57.3271 111.877 -50.9794 116.638 -50.5827 118.82 -43.8383 124.969 -41.0613 128.936 -37.8874 132.308 -30.7464 134.094 -29.5562 139.251 -22.4151 142.227 -18.4478 145.202 -12.8936 147.781 -9.12472 150.36 -0.991818 152.343 -1001.34 0 4.95909 -187.652 9.12472 -185.272 16.8609 -183.09 22.4151 -180.511 29.9529 -177.535 33.5234 -174.163 42.6482 -173.37 45.822 -167.617 52.5663 -163.848 59.7074 -160.278 62.0878 -158.096 70.4191 -151.55 73.1962 -147.186 79.1471 -144.607 85.098 -137.466 89.2636 -132.308 96.8014 -129.135 98.5867 -121.399 103.943 -115.646 111.282 -111.877 114.257 -103.546 119.613 -95.2145 122.192 -90.6521 128.936 -81.7258 133.697 -74.9814 137.863 -65.6583 140.243 -56.1369 144.409 -46.6154 148.376 -39.0776 152.145 -26.7791 154.128 -16.6625 155.319 -6.34763 0 0z"/>
    </g>
    <g>
     <path class="fil8" d="M11433.1 6296.06l1352.44 -337.218 0 0 8.52963 30.1513 10.3149 28.7627 9.32309 28.1676 10.91 26.9774 9.71981 26.3824 13.6871 24.3987 9.32309 21.2249 14.0838 22.0184 12.6953 21.0265 13.6871 19.4396 11.7035 15.6707 13.6871 16.6625 11.7035 15.6707 9.52145 11.5051 13.6871 11.7035 11.9018 10.7116 9.32309 6.546 8.13291 7.73618 5.55418 3.57054 6.546 4.16563 4.76073 2.57873 5.55418 2.97545 -2.57873 0 1.19018 -0.595091 -3.76891 -1.38854 -5.75254 -0.793454 -4.95909 -0.595091 -9.91818 -1.78527 -8.92636 0.595091 -8.13291 0.595091 -10.1165 1.38854 -9.71981 0.991818 338.408 1358 -87.0816 17.2576 -87.8751 12.1002 -85.8914 5.75254 -86.6849 0.595091 -88.0734 -7.33945 -82.7176 -11.3067 -83.1143 -16.6625 -80.734 -22.4151 -75.3782 -25.9856 -78.3536 -30.548 -69.4272 -32.3333 -69.4272 -37.094 -66.4518 -39.8711 -66.2534 -44.8302 -62.4845 -45.0285 -59.7074 -50.186 -55.5418 -50.3843 -52.1696 -52.9631 -54.7483 -56.732 -50.186 -56.5336 -46.6154 -59.1123 -46.2187 -63.6747 -41.458 -63.0796 -40.4662 -64.6665 -36.6973 -67.2452 -38.2842 -70.4191 -31.1431 -70.8158 -32.3333 -71.2125 -27.9693 -73.3945 -26.3824 -74.5847 -22.2167 -76.7667 -20.4314 -77.7585 0 0zm989.041 -2085.99l338.408 1358 0 0 9.32309 -3.76891 9.52145 -3.57054 7.53782 -3.17382 7.33945 -6.34763 8.728 -3.57054 6.546 -3.57054 2.182 -2.57873 2.77709 -3.37218 1.38854 -0.396727 -2.97545 0.198364 -1.19018 4.56236 -2.77709 4.56236 -1.98364 3.37218 -4.95909 9.12472 -6.14927 11.3067 -2.77709 9.52145 -5.35582 14.8773 -4.76073 13.6871 -4.76073 18.0511 -5.75254 19.8364 -1.38854 20.4314 -5.75254 19.8364 -0.396727 23.2085 -1.19018 24.3987 -1.98364 25.7873 -0.396727 26.7791 1.19018 24.5971 3.96727 27.7709 2.97545 28.9611 4.95909 29.5562 4.56236 30.1513 6.546 30.548 -1352.44 337.218 -18.4478 -78.1552 -16.4642 -78.1552 -11.7035 -78.3536 -9.71981 -78.1552 -5.15745 -78.1552 -3.57054 -80.1389 -1.19018 -77.1634 0.793454 -76.1716 5.15745 -76.37 9.91818 -75.9732 8.13291 -76.9651 16.0674 -74.7831 15.274 -72.9978 19.4396 -72.4027 23.0102 -74.3863 25.5889 -70.8158 31.7382 -72.9978 31.5398 -68.4354 35.5071 -67.4436 41.6563 -69.6256 44.0367 -65.2616 48.7974 -61.6911 49.3925 -62.4845 56.9303 -59.1123 61.096 -57.7238 62.8812 -52.9631 70.4191 -49.5909 74.5847 -45.2269 76.37 -42.8465 78.552 -35.3087 83.3127 -30.548 85.098 -25.5889 0 0zm1852.52 1377.44l-1352.44 337.218 0 0 -8.52963 -30.1513 -10.3149 -28.7627 -9.32309 -28.1676 -10.91 -27.1758 -9.71981 -26.3824 -13.092 -21.4233 -10.1165 -24.2004 -13.8854 -21.82 -12.6953 -21.2249 -10.5133 -17.456 -15.0756 -17.456 -13.4887 -16.6625 -11.9018 -15.6707 -12.6953 -13.6871 -10.3149 -9.71981 -11.9018 -10.7116 -9.32309 -6.546 -8.13291 -7.73618 -5.55418 -3.57054 -6.546 -4.16563 -4.76073 -2.57873 -2.38036 -0.991818 -0.595091 -1.78527 -1.19018 0.396727 3.76891 1.38854 5.75254 0.793454 4.95909 0.595091 9.91818 1.78527 8.92636 -0.595091 8.13291 -0.595091 10.1165 -1.38854 9.71981 -0.991818 -338.408 -1358 87.0816 -17.2576 87.8751 -12.1002 85.8914 -5.75254 86.6849 -0.595091 88.0734 7.33945 82.7176 11.3067 83.1143 16.6625 80.734 22.4151 75.3782 26.184 75.1798 28.366 72.6011 34.3169 69.4272 37.094 66.4518 39.8711 66.2534 44.8302 62.4845 45.0285 59.7074 50.186 55.5418 50.3843 55.5418 54.9467 51.1778 54.9467 50.3843 56.5336 46.4171 59.1123 42.8465 61.4927 45.0285 65.0632 40.4662 64.8649 36.4989 67.0469 37.8874 67.8403 31.7382 73.3945 32.3333 71.2125 27.9693 73.5929 26.3824 74.5847 22.2167 76.7667 20.4314 77.7585 0 0zm-989.041 2085.79l-338.408 -1358 0.595091 2.77709 -9.91818 0.991818 -6.74436 2.97545 -10.3149 3.96727 -10.1165 6.74436 -5.95091 2.97545 -4.16563 2.97545 -4.56236 3.37218 -2.97545 3.17382 1.38854 -0.198364 -0.198364 -1.98364 1.58691 -1.98364 2.77709 -4.56236 1.98364 -3.57054 5.15745 -9.12472 3.37218 -10.7116 7.93454 -10.7116 2.77709 -14.0838 4.76073 -13.6871 4.76073 -18.0511 5.75254 -19.8364 1.38854 -20.4314 5.75254 -20.0347 0.396727 -23.0102 1.38854 -24.3987 2.77709 -23.4069 -2.57873 -25.9856 0.793454 -27.9693 -3.76891 -27.7709 -2.97545 -28.7627 -4.95909 -29.5562 -4.56236 -30.1513 -6.546 -30.548 1352.44 -337.218 18.4478 78.1552 16.4642 78.1552 11.7035 78.3536 9.71981 77.9569 4.95909 78.1552 5.55418 77.1634 -1.38854 77.5602 0 78.9487 -5.35582 76.37 -9.91818 75.7749 -8.13291 77.1634 -16.0674 74.7831 -15.274 72.9978 -19.4396 72.4027 -23.0102 74.3863 -28.1676 71.2125 -26.5807 71.8076 -33.9202 69.0305 -35.7054 67.4436 -41.6563 69.824 -44.0367 65.2616 -48.004 64.2698 -52.9631 60.3025 -54.1533 58.5173 -60.8976 57.9222 -65.6583 53.3598 -67.642 48.9958 -72.2043 44.6318 -78.7503 43.64 -81.3291 35.7054 -80.5356 29.9529 -85.6931 22.8118 0.595091 2.77709z"/>
    </g>
   </g>
  </g>
  <g style="clip-path:url(#id7)">
   <polygon class="fil4" points="-38496,-39189.3 131199,-39189.3 131199,81783.7 -38496,81783.7 "/>
   <g id="Capa_x0020_1_7">
    <metadata id="CorelCorpID_8Corel-Layer"/>
    <polygon id="1" class="fil5 str1" points="9406,23484.3 7973.22,15515.8 4412,15405.1 1135.23,20983.3 607.389,26743.2 2829.85,26546.4 4227.33,22841.4 5682.32,21814 7391.82,26957 10450,27291.9 "/>
    <polygon class="fil5 str1" points="12392.6,10339.1 12236.1,10169.3 12072,10008 11898.8,9846.77 11732.2,9702.56 8819.44,11871.7 8892.64,12178.3 13372.5,12084.1 13303.6,11885.2 13222.5,11675.5 13131.7,11465.8 13030.9,11267.4 12923,11077.6 12805.6,10887.8 12675.6,10698.3 12539,10519.8 "/>
    <polygon class="fil6 str1" points="6167.72,7072.85 5986.81,931.515 6632.29,415.373 10444.4,349.318 10910.6,591.719 10460.7,6995.09 9392.91,7422.96 7808.38,7602.68 6179.82,7489.02 "/>
    <polygon class="fil5 str1" points="2949.47,8609.97 3110.14,8468.74 3260.5,8320.56 3409.47,8163.85 3540.79,8013.09 731.168,5291.74 408.431,5353.63 1200.1,9481.18 1406.2,9421.28 1622.02,9350.26 1836.45,9270.32 2036.8,9181.26 2227.03,9085.25 2415.67,8980.51 2601.93,8864.27 2775.11,8741.49 "/>
    <g>
     <path class="fil7" d="M17137 9846.57l-1001.34 0 0 0 -0.991818 -152.343 -9.12472 -150.36 -12.8936 -147.781 -18.6462 -145.202 -22.2167 -142.227 -29.5562 -139.251 -30.7464 -134.094 -37.8874 -132.308 -41.0613 -128.936 -43.8383 -124.969 -50.5827 -118.82 -50.9794 -116.638 -57.3271 -111.877 -59.7074 -105.331 -61.6911 -102.157 -65.6583 -97.3965 -67.4436 -89.8587 -69.4272 -86.0898 -72.6011 -80.734 -72.006 -72.6011 -75.3782 -68.2371 -76.37 -64.2698 -79.3454 -55.3434 -78.1552 -50.3843 -78.7503 -43.64 -79.3454 -38.2842 -81.7258 -32.73 -81.7258 -27.1758 -81.7258 -19.2413 -81.9242 -15.274 -83.5111 -8.728 -85.098 -2.38036 0 -1001.34 155.319 6.34763 154.128 16.6625 152.145 26.7791 148.376 39.0776 144.409 46.6154 140.441 56.1369 137.664 65.6583 133.895 74.9814 128.936 81.7258 122.192 90.6521 119.613 95.2145 114.257 103.546 111.282 111.877 103.943 115.646 100.372 121.399 94.8178 129.135 89.462 132.308 85.098 137.466 79.1471 144.607 73.1962 147.186 70.4191 151.55 62.0878 158.096 59.7074 160.278 52.5663 163.848 45.822 167.617 42.6482 173.37 33.5234 174.163 29.7545 177.535 22.6134 180.511 16.8609 183.09 9.12472 185.272 4.95909 187.652 0 0zm-35.5071 592.71l-993.405 -105.529 4.56236 -36.6973 12.8936 -147.582 9.12472 -150.558 0.991818 -152.343 1001.34 0 -4.95909 187.652 -9.12472 185.47 -16.8609 182.891 -4.56236 36.6973zm-5641.86 -592.71l1001.34 0 0 0 0.991818 152.343 9.12472 150.558 12.8936 147.582 18.4478 145.202 22.4151 142.227 29.5562 139.45 30.7464 133.895 37.8874 132.507 41.0613 128.936 43.8383 124.771 50.5827 118.82 52.7647 116.638 55.5418 112.075 59.7074 105.133 61.6911 102.356 65.46 97.3965 65.8567 89.8587 71.2125 86.0898 72.6011 80.734 72.006 72.6011 75.3782 68.2371 76.37 64.0714 78.3536 54.7483 -563.353 825.192 -121.2 -90.0571 -119.613 -95.0161 -114.257 -103.546 -111.282 -111.877 -103.943 -115.646 -98.5867 -121.399 -96.8014 -129.135 -89.2636 -132.308 -85.098 -137.664 -79.1471 -144.409 -74.9814 -147.384 -68.6338 -151.55 -62.0878 -158.096 -59.7074 -160.079 -52.5663 -163.848 -45.822 -167.816 -42.6482 -173.171 -33.5234 -174.362 -29.9529 -177.535 -22.4151 -180.511 -16.8609 -182.891 -9.12472 -185.47 -4.95909 -187.652 0 0zm2838.58 -3806l0 1001.34 0 0 -85.098 2.38036 -83.5111 8.728 -81.9242 15.274 -81.7258 19.2413 -81.7258 27.1758 -81.5274 32.73 -79.5438 38.2842 -78.552 43.64 -78.1552 50.3843 -79.3454 55.3434 -76.37 64.2698 -75.3782 68.2371 -72.006 72.6011 -72.6011 80.734 -71.2125 86.0898 -65.8567 89.8587 -65.46 97.3965 -61.6911 102.157 -59.7074 105.331 -57.3271 111.877 -50.9794 116.638 -50.5827 118.82 -43.8383 124.969 -41.0613 128.936 -37.8874 132.308 -30.7464 134.094 -29.5562 139.251 -22.4151 142.227 -18.4478 145.202 -12.8936 147.781 -9.12472 150.36 -0.991818 152.343 -1001.34 0 4.95909 -187.652 9.12472 -185.272 16.8609 -183.09 22.4151 -180.511 29.9529 -177.535 33.5234 -174.163 42.6482 -173.37 45.822 -167.617 52.5663 -163.848 59.7074 -160.278 62.0878 -158.096 70.4191 -151.55 73.1962 -147.186 79.1471 -144.607 85.098 -137.466 89.2636 -132.308 96.8014 -129.135 98.5867 -121.399 103.943 -115.646 111.282 -111.877 114.257 -103.546 119.613 -95.2145 122.192 -90.6521 128.936 -81.7258 133.697 -74.9814 137.863 -65.6583 140.243 -56.1369 144.409 -46.6154 148.376 -39.0776 152.145 -26.7791 154.128 -16.6625 155.319 -6.34763 0 0z"/>
    </g>
    <g>
     <path class="fil8" d="M11433.1 6296.06l1352.44 -337.218 0 0 8.52963 30.1513 10.3149 28.7627 9.32309 28.1676 10.91 26.9774 9.71981 26.3824 13.6871 24.3987 9.32309 21.2249 14.0838 22.0184 12.6953 21.0265 13.6871 19.4396 11.7035 15.6707 13.6871 16.6625 11.7035 15.6707 9.52145 11.5051 13.6871 11.7035 11.9018 10.7116 9.32309 6.546 8.13291 7.73618 5.55418 3.57054 6.546 4.16563 4.76073 2.57873 5.55418 2.97545 -2.57873 0 1.19018 -0.595091 -3.76891 -1.38854 -5.75254 -0.793454 -4.95909 -0.595091 -9.91818 -1.78527 -8.92636 0.595091 -8.13291 0.595091 -10.1165 1.38854 -9.71981 0.991818 338.408 1358 -87.0816 17.2576 -87.8751 12.1002 -85.8914 5.75254 -86.6849 0.595091 -88.0734 -7.33945 -82.7176 -11.3067 -83.1143 -16.6625 -80.734 -22.4151 -75.3782 -25.9856 -78.3536 -30.548 -69.4272 -32.3333 -69.4272 -37.094 -66.4518 -39.8711 -66.2534 -44.8302 -62.4845 -45.0285 -59.7074 -50.186 -55.5418 -50.3843 -52.1696 -52.9631 -54.7483 -56.732 -50.186 -56.5336 -46.6154 -59.1123 -46.2187 -63.6747 -41.458 -63.0796 -40.4662 -64.6665 -36.6973 -67.2452 -38.2842 -70.4191 -31.1431 -70.8158 -32.3333 -71.2125 -27.9693 -73.3945 -26.3824 -74.5847 -22.2167 -76.7667 -20.4314 -77.7585 0 0zm989.041 -2085.99l338.408 1358 0 0 9.32309 -3.76891 9.52145 -3.57054 7.53782 -3.17382 7.33945 -6.34763 8.728 -3.57054 6.546 -3.57054 2.182 -2.57873 2.77709 -3.37218 1.38854 -0.396727 -2.97545 0.198364 -1.19018 4.56236 -2.77709 4.56236 -1.98364 3.37218 -4.95909 9.12472 -6.14927 11.3067 -2.77709 9.52145 -5.35582 14.8773 -4.76073 13.6871 -4.76073 18.0511 -5.75254 19.8364 -1.38854 20.4314 -5.75254 19.8364 -0.396727 23.2085 -1.19018 24.3987 -1.98364 25.7873 -0.396727 26.7791 1.19018 24.5971 3.96727 27.7709 2.97545 28.9611 4.95909 29.5562 4.56236 30.1513 6.546 30.548 -1352.44 337.218 -18.4478 -78.1552 -16.4642 -78.1552 -11.7035 -78.3536 -9.71981 -78.1552 -5.15745 -78.1552 -3.57054 -80.1389 -1.19018 -77.1634 0.793454 -76.1716 5.15745 -76.37 9.91818 -75.9732 8.13291 -76.9651 16.0674 -74.7831 15.274 -72.9978 19.4396 -72.4027 23.0102 -74.3863 25.5889 -70.8158 31.7382 -72.9978 31.5398 -68.4354 35.5071 -67.4436 41.6563 -69.6256 44.0367 -65.2616 48.7974 -61.6911 49.3925 -62.4845 56.9303 -59.1123 61.096 -57.7238 62.8812 -52.9631 70.4191 -49.5909 74.5847 -45.2269 76.37 -42.8465 78.552 -35.3087 83.3127 -30.548 85.098 -25.5889 0 0zm1852.52 1377.44l-1352.44 337.218 0 0 -8.52963 -30.1513 -10.3149 -28.7627 -9.32309 -28.1676 -10.91 -27.1758 -9.71981 -26.3824 -13.092 -21.4233 -10.1165 -24.2004 -13.8854 -21.82 -12.6953 -21.2249 -10.5133 -17.456 -15.0756 -17.456 -13.4887 -16.6625 -11.9018 -15.6707 -12.6953 -13.6871 -10.3149 -9.71981 -11.9018 -10.7116 -9.32309 -6.546 -8.13291 -7.73618 -5.55418 -3.57054 -6.546 -4.16563 -4.76073 -2.57873 -2.38036 -0.991818 -0.595091 -1.78527 -1.19018 0.396727 3.76891 1.38854 5.75254 0.793454 4.95909 0.595091 9.91818 1.78527 8.92636 -0.595091 8.13291 -0.595091 10.1165 -1.38854 9.71981 -0.991818 -338.408 -1358 87.0816 -17.2576 87.8751 -12.1002 85.8914 -5.75254 86.6849 -0.595091 88.0734 7.33945 82.7176 11.3067 83.1143 16.6625 80.734 22.4151 75.3782 26.184 75.1798 28.366 72.6011 34.3169 69.4272 37.094 66.4518 39.8711 66.2534 44.8302 62.4845 45.0285 59.7074 50.186 55.5418 50.3843 55.5418 54.9467 51.1778 54.9467 50.3843 56.5336 46.4171 59.1123 42.8465 61.4927 45.0285 65.0632 40.4662 64.8649 36.4989 67.0469 37.8874 67.8403 31.7382 73.3945 32.3333 71.2125 27.9693 73.5929 26.3824 74.5847 22.2167 76.7667 20.4314 77.7585 0 0zm-989.041 2085.79l-338.408 -1358 0.595091 2.77709 -9.91818 0.991818 -6.74436 2.97545 -10.3149 3.96727 -10.1165 6.74436 -5.95091 2.97545 -4.16563 2.97545 -4.56236 3.37218 -2.97545 3.17382 1.38854 -0.198364 -0.198364 -1.98364 1.58691 -1.98364 2.77709 -4.56236 1.98364 -3.57054 5.15745 -9.12472 3.37218 -10.7116 7.93454 -10.7116 2.77709 -14.0838 4.76073 -13.6871 4.76073 -18.0511 5.75254 -19.8364 1.38854 -20.4314 5.75254 -20.0347 0.396727 -23.0102 1.38854 -24.3987 2.77709 -23.4069 -2.57873 -25.9856 0.793454 -27.9693 -3.76891 -27.7709 -2.97545 -28.7627 -4.95909 -29.5562 -4.56236 -30.1513 -6.546 -30.548 1352.44 -337.218 18.4478 78.1552 16.4642 78.1552 11.7035 78.3536 9.71981 77.9569 4.95909 78.1552 5.55418 77.1634 -1.38854 77.5602 0 78.9487 -5.35582 76.37 -9.91818 75.7749 -8.13291 77.1634 -16.0674 74.7831 -15.274 72.9978 -19.4396 72.4027 -23.0102 74.3863 -28.1676 71.2125 -26.5807 71.8076 -33.9202 69.0305 -35.7054 67.4436 -41.6563 69.824 -44.0367 65.2616 -48.004 64.2698 -52.9631 60.3025 -54.1533 58.5173 -60.8976 57.9222 -65.6583 53.3598 -67.642 48.9958 -72.2043 44.6318 -78.7503 43.64 -81.3291 35.7054 -80.5356 29.9529 -85.6931 22.8118 0.595091 2.77709z"/>
    </g>
   </g>
  </g>
 </g>
</svg>
